<svg width="540" height="150" fill="none" xmlns="http://www.w3.org/2000/svg"><path d="M208.847 102.766c-.248-.131-.598-.175-1.196-.189l-7.135-.03c-.832 0-1.036-1.006-1.022-4.859l.438-96.055c0-.963-.861-1.094-1.707-1.094L178.876.436c-.627 0-1.663 0-1.663 1.08 0 .438.175.744.511.92.248.13.598.175 1.196.19l7.135.028c.336 0 .628.059.818.832.189.773.218 2.057.218 3.881l-.408 90.248c-.015 3.853-.234 4.845-1.065 4.845l-15.832-.073c-.321 0-.613-.073-.803-.905-.189-.802-.218-2.116-.218-3.954l.437-96.056c0-.963-.861-1.094-1.707-1.094L148.147.291c-.613 0-1.649 0-1.649 1.08 0 1.094 1.065 1.094 1.707 1.094l7.135.029c.847 0 1.036.934 1.022 4.727l-.409 90.249c-.014 3.852-.233 4.844-1.065 4.844l-16.795-.073c-.321 0-.612-.073-.802-.905-.19-.802-.219-2.115-.219-3.954l.248-49.596c0-.19-.029-.482-.248-.715-.263-.263-.7-.38-1.445-.38l-19.333-.102c-.628 0-1.664 0-1.664 1.08 0 .438.175.744.511.92.248.13.598.174 1.197.189l7.135.03c.335 0 .627.057.817.845.19.774.219 2.058.219 3.882l-.219 43.774c-.015 3.852-.234 4.844-1.065 4.844l-16.022-.043c-.831 0-1.036-1.007-1.021-4.86l.146-30.948c.073-14.752-12.155-21.42-24.31-21.478h-.175c-10.228 0-17.436 4.29-19.494 11.527-3.59-7.996-13.774-11.703-21.99-11.732h-.189c-10.14 0-14.81 4.042-17.437 7.369l.03-4.742c0-.19-.03-.482-.263-.715-.263-.263-.7-.38-1.445-.38l-19.012-.087c-.628 0-1.664 0-1.664 1.08 0 .437.175.744.511.919.248.131.598.175 1.197.19l7.135.029c.335 0 .627.058.817.846.19.773.219 2.057.219 3.881l-.22 43.775c-.014 3.852-.233 4.844-1.064 4.844l-7.18-.029c-.743.029-1.794.029-1.794 1.109 0 1.094 1.065 1.094 1.707 1.094l29.241.146c.613 0 1.65 0 1.664-1.08 0-.437-.175-.744-.51-.919-.249-.131-.6-.175-1.197-.19l-7.136-.029c-.32 0-.612-.073-.817-.904-.19-.803-.219-2.116-.219-3.955l.19-39.192c.015-3.094 4.524-10.856 15.204-10.856 6.246.029 13.687 2.13 13.629 11.95l-.19 38.244c-.014 3.852-.233 4.845-1.065 4.845l-7.179-.03c-.627 0-1.663 0-1.663 1.08 0 1.094 1.065 1.094 1.707 1.094l29.241.146c.613 0 1.649 0 1.649-1.079 0-.438-.175-.745-.51-.92-.249-.131-.6-.175-1.197-.189l-7.136-.029c-.32 0-.612-.073-.802-.905-.19-.803-.219-2.116-.219-3.954l.19-39.193c.014-3.093 4.523-10.856 15.204-10.856 3.983.014 7.179.86 9.484 2.524 2.787 2 4.174 5.166 4.159 9.426l-.19 38.245c-.014 3.852-.233 4.844-1.065 4.844l-7.194-.029c-.612 0-1.648 0-1.663 1.079 0 1.095 1.065 1.095 1.707 1.095l122.641.554c.628 0 1.664 0 1.664-1.08 0-.437-.175-.744-.511-.919h.029z" fill="#9D2FE5"/><path d="M129.864 37.571h.058c4.465 0 7.85-3.37 7.865-7.85.015-4.582-3.356-8.069-7.909-8.084-4.494 0-8.01 3.517-8.039 7.997-.015 4.494 3.429 7.908 8.01 7.937h.015zm112.252 28.483c-9.587-3.837-18.648-7.47-18.604-15.73 0-2.217.569-3.983 1.678-5.252 1.065-1.226 2.743-2.116 4.99-2.627a21.82 21.82 0 014.801-.54h.335c7.821.132 15.35 3.852 19.159 9.5a9.713 9.713 0 011.342 2.874c.175.613.234 1.226.307 1.882l.073.686c.058.613.131 1.372.802 1.824.336.233.759.365 1.255.394h.204c.511 0 .978-.117 1.343-.365.744-.481.729-1.24.729-1.838l.161-11.907c0-1.226-7.092-3.881-7.165-3.896-4.421-1.561-11.396-2.772-16.225-2.816h-.38c-16.167 0-23.536 10.068-23.609 17.232-.116 11.44 10.929 16.168 21.61 20.764 9.543 4.1 18.546 7.967 18.473 16.24-.058 5.968-6.085 9.689-15.73 9.689h-.364c-5.574-.058-11.002-1.897-14.913-5.078-4.421-3.59-6.727-8.609-6.668-14.504v-.992c.029-.613-.102-1.036-.365-1.313-.336-.365-.802-.409-1.167-.409-1.328 0-1.328 1.197-1.343 1.693l-.219 21.77c0 .336.132.642.365.876.248.248.584.394.978.394 1.765-.015 6.012-.029 10.579-.029 5.282 0 10.972 0 13.745.043h.394c16.284 0 25.17-9.411 25.258-18.254.116-11.541-11.046-16.006-21.844-20.34l.015.03zm171.493 6.771l41.542.102c3.998-.088 5.515-1.839 5.428-6.275-.277-13.643-7.909-28.205-28.483-28.205-.379 0-.758 0-1.138.015-23.959.598-32.086 18.764-31.78 34.114.409 20.239 13.351 32.32 34.626 32.32.496 0 1.006 0 1.517-.014 5.428-.131 15.321-1.678 20.559-10.52 1.897-3.21 3.065-7.034 3.196-10.477v-.22c.087-.67.248-2.26-.569-3.15-.365-.41-.876-.614-1.591-.614-1.327.03-1.459 1.635-1.648 3.852-.132 1.547-.292 3.459-.89 5.37-1.124 3.619-3.298 6.902-6.1 9.222-3.998 3.312-9.221 3.852-13.307 3.969h-.511a21.5 21.5 0 01-8.974-1.985 21.14 21.14 0 01-8.74-7.514c-3.633-5.428-3.764-12.126-3.896-18.604v-.876c-.029-.394.102-.467.788-.481l-.029-.03zm-.511-7.69l.059-.949c.554-9.163 3.108-15.875 7.602-19.946 2.582-2.35 5.924-3.59 9.659-3.59h.38c6.055.146 11.819 3.604 14.358 8.61 2.976 5.85 3.122 12.62 3.283 19.158l.029 1.24c0 .19-.044.336-.175.467-.204.219-.555.321-.803.321l-33.925-.219h-.394c-.189 0-.262 0-.277-.452-.029-1.24.073-2.816.19-4.64h.014z" fill="#9D2FE5"/><path d="M395.997 107.99c-5.997-4.932-14.402-5.501-20.194-5.501-4.057 0-13.191-.073-16.97-.117l6.289-3.195c6.945-3.08 12.607-7.092 12.665-7.136l.117-.087c9.163-7.18 13.759-10.783 13.832-26.206 0-.745-.16-18.59-.16-19.349 0-1.824.029-3.122.219-3.88.19-.774.481-.833.817-.833l12.125-.029c.599 0 .949-.058 1.197-.19.336-.175.511-.481.511-.919 0-1.065-1.022-1.08-1.693-1.08l-23.988.088c-.759 0-1.182.117-1.445.38a.898.898 0 00-.248.714v1.226c-4.728-2.568-10.52-3.881-17.189-3.91h-.233c-22.106 0-30.044 14.445-30.117 27.971-.058 10.754 4.407 18.998 12.928 23.843 4.699 2.189 8.317 3.618 15.54 3.677h.773c3.429 0 5.268-.19 7.282-.773.452-.132 1.269-.482 2.072-.818l.554-.233c-1.488 1.328-5.238 3.983-8.594 5.734-6.815 3.546-17.554 6.304-17.671 6.348-8.419 2.509-17.422 9.455-17.495 21.464-.044 8.054 3.75 14.226 11.265 18.341 6.435 3.517 15.569 5.413 26.44 5.457h.569c9.309 0 22.718-.904 31.78-8.696 4.363-3.75 6.814-9.455 6.756-15.657-.073-6.522-2.948-12.738-7.676-16.634h-.058zm-34.596-16.707c-10.039-.044-12.666-5.764-13.526-14.344-.73-7.004-.686-15.043.102-22.047.948-8.726 3.706-14.533 14.095-14.533v-.409l.146.409c8.842.043 12.87 4.202 13.891 14.343.73 7.033.7 14.869-.117 22.048-1.094 9.907-5.69 14.533-14.606 14.533h.015zm27.636 41.118l-.467.059c-1.999 4.99-5.778 9.28-10.097 11.469-3.604 1.838-8.201 2.772-13.643 2.772h-.234c-4.859-.029-10.958-.467-14.897-3.794-4.495-3.779-8.245-12.315-8.595-17.422-.656-9.659 3.998-13.643 6.493-15.802l.175-.146c2.569-2.204 5.56-3.532 9.441-4.159a59.403 59.403 0 019.28-.759c6.129 0 11.192 1.109 14.65 3.196 3.079 1.853 5.107 3.75 6.391 5.953 2.889 4.947 3.356 12.709 1.124 18.487l.379.146z" fill="#9D2FE5"/><path d="M331.094 100.621a.841.841 0 00-.802-.511c-.219 0-.482.059-.817.176-.278.087-.569.262-.905.467-.642.393-1.445.875-2.32.875-1.065 0-1.839-.248-2.364-.773-.627-.628-.904-1.65-.904-3.24l.189-37.952c.029-6.624-2.685-12.096-7.835-15.802-4.801-3.459-11.542-5.297-19.48-5.341h-.16c-11.221 0-23.755 5.734-23.799 13.979-.015 4.158 3.4 7.193 8.2 7.222 4.888 0 8.317-2.699 8.332-6.551.015-2.948-1.59-4.305-2.889-5.399-.934-.788-1.664-1.415-1.664-2.422 0-2.189 3.181-4.523 12.053-4.523h.263c8.142.043 13.161 2.29 13.117 13.336l-.043 8.39c-.015 3.342-2.452 4.027-9.091 5.88-4.173 1.182-11.702 2.846-17.291 4.028-9.951 2.16-15.014 7.514-15.058 15.919-.029 4.494 1.853 8.55 5.297 11.425 3.852 3.225 9.586 4.947 16.575 4.976h.234c8.886 0 14.956-2.481 19.582-8.055.656 5.005 5.194 8.201 11.79 8.201 4.435 0 7.368-.832 9.236-2.598.788-.744.744-1.342.569-1.707h-.015zm-21.989-9.834c-.029 5.209-7.325 11.571-15.89 11.571-7.121-.03-8.667-3.692-9.266-7.632-.335-2.436-.321-6.537-.131-9.324.788-9.893 6.887-11.76 19.071-15.467 1.955-.598 4.057-1.24 6.318-1.97l-.117 22.822h.015z" fill="#9D2FE5"/><path d="M208.847 103.233c0 .54-.321.671-1.299.671l-122.597-.554c-.977 0-1.298-.146-1.298-.686s.32-.671 1.298-.671l7.135.029c1.3 0 1.46-1.474 1.489-5.268l.19-38.244c.043-9.6-6.917-12.33-14.052-12.359-11.192-.058-15.613 8.303-15.627 11.28l-.19 39.192c-.015 3.779.131 5.268 1.43 5.282l7.135.03c.978 0 1.299.145 1.299.685s-.321.672-1.3.672l-29.182-.146c-.978 0-1.299-.146-1.299-.686s.321-.671 1.3-.671l7.134.029c1.299 0 1.46-1.474 1.489-5.268l.19-38.244c.043-9.587-6.917-12.33-14.052-12.359-11.192-.058-15.613 8.303-15.628 11.28l-.19 39.192c-.014 3.779.132 5.267 1.43 5.282l7.136.029c.977 0 1.298.146 1.298.686s-.32.671-1.298.671l-29.183-.146c-.978 0-1.299-.146-1.299-.685 0-.54.336-.672 1.299-.672l7.135.029c1.299 0 1.474-1.473 1.489-5.267l.218-43.774c.015-3.78-.131-5.137-1.43-5.137l-7.135-.029c-.977 0-1.298-.146-1.298-.685 0-.54.335-.672 1.298-.672l18.969.088c1.138 0 1.299.277 1.299.686l-.03 5.544h.322c2.611-3.502 7.178-7.806 17.714-7.748 8.112.044 18.793 3.736 21.989 12.403h.16c1.489-7.018 8.172-12.257 19.524-12.198 10.374.058 23.973 5.384 23.9 21.055l-.145 30.948c-.015 3.78.131 5.268 1.429 5.283l16.022.043c1.299 0 1.459-1.473 1.488-5.267l.219-43.774c.015-3.78-.131-5.137-1.43-5.137l-7.135-.029c-.978 0-1.299-.146-1.299-.686s.321-.67 1.299-.67l19.29.101c1.138 0 1.298.277 1.298.686l-.248 49.596c-.014 3.78.132 5.268 1.43 5.283l16.795.072c1.299 0 1.459-1.473 1.488-5.267l.409-90.248c.015-3.78-.131-5.136-1.43-5.136l-7.135-.03c-.978 0-1.299-.145-1.299-.685s.321-.671 1.299-.671l19.29.087c1.138 0 1.298.277 1.298.686l-.437 96.055c-.015 3.78.131 5.268 1.43 5.282l15.831.073c1.299 0 1.459-1.473 1.489-5.267l.408-90.248c.015-3.78-.131-5.136-1.43-5.136l-7.135-.03c-.978 0-1.299-.145-1.299-.685s.321-.672 1.299-.672l19.29.103c1.138 0 1.298.277 1.298.685l-.437 96.056c-.015 3.779.131 5.267 1.43 5.282l7.135.029c.978 0 1.299.146 1.299.686l.014-.044zm14.139-53.36c0-1.941.438-3.97 1.78-5.516 1.299-1.503 3.24-2.306 5.21-2.758a21.725 21.725 0 015.238-.54c7.617.117 15.394 3.604 19.494 9.689a10.405 10.405 0 011.401 2.991c.219.788.277 1.605.365 2.408.073.612.058 1.357.656 1.765.292.204.671.306 1.036.321.453.03.919-.044 1.299-.292.627-.423.54-1.094.554-1.722.044-3.501.102-8.17.161-11.673 0-.583-4.655-2.772-6.887-3.516-4.64-1.634-11.63-2.743-16.095-2.787-16.211-.16-23.507 9.893-23.579 16.824-.219 21.376 40.257 19.1 40.068 37.004-.059 5.778-5.706 10.199-16.503 10.097-11.002-.102-22.106-7.004-21.975-20.005v-.992c.029-1.007-.336-1.299-1.094-1.313-.745 0-.934.423-.949 1.284l-.219 21.77c0 .482.409.861.92.861 3.823-.044 19.173-.044 24.338 0 15.467.146 25.141-8.594 25.243-17.845.219-21.523-40.535-18.152-40.447-36.056h-.015zm-93.224-13.148c4.231.03 7.485-3.078 7.5-7.427.014-4.362-3.211-7.646-7.442-7.675-4.217-.029-7.646 3.225-7.675 7.588-.015 4.363 3.385 7.5 7.602 7.514h.015zm266.804 102.797c-8.551 7.354-21.289 8.638-32.087 8.594-20.165-.087-37.368-6.537-37.281-23.375.059-10.973 8.04-18.356 17.204-21.085 0 0 10.812-2.757 17.743-6.376 4.567-2.379 10.812-7.019 9.207-6.844-.321.03-2.714 1.153-3.546 1.401-1.999.57-3.866.788-7.937.744-6.902-.058-10.39-1.327-15.365-3.633-7.617-4.333-12.739-12.009-12.68-23.463.073-15.277 9.878-27.65 29.941-27.549 7.077.03 12.797 1.503 17.364 4.072.088.043.161.102.248.145v-1.94c0-.409.146-.672 1.284-.686l23.959-.088c.978 0 1.299.132 1.299.672s-.321.67-1.299.685l-12.125.03c-1.299 0-1.459 1.357-1.43 5.136 0 0 .175 18.604.161 19.348-.073 15.277-4.597 18.765-13.775 25.958 0 0-5.603 3.998-12.592 7.092l-7.821 3.968c.233 0 13.526.132 18.662.132 6.887 0 14.417.875 19.932 5.413 9.397 7.734 10.331 23.565.919 31.664l.015-.015zm-20.267-63.166c.802-7.165.846-15.117.102-22.135-.905-9.076-4.174-14.665-14.3-14.709-10.506-.058-13.643 5.662-14.65 14.898-.802 7.004-.846 15.117-.102 22.135.905 9.076 3.808 14.665 13.935 14.709 10.126.043 14.022-5.822 15.015-14.898zm11.498 36.77c-1.533-2.626-3.984-4.552-6.537-6.099-6.523-3.94-16.941-3.663-24.208-2.481-3.443.555-6.697 1.708-9.645 4.246-2.436 2.102-7.514 6.187-6.814 16.299.365 5.238 4.173 13.877 8.741 17.714 3.954 3.327 10.053 3.867 15.16 3.896 4.771.029 9.776-.627 14.081-2.816 4.611-2.349 8.375-6.902 10.287-11.688l.087-.219c2.16-5.574 1.912-13.599-1.152-18.837v-.015zm-57.666-11.527c-1.634 1.547-4.304 2.48-8.959 2.48-6.537 0-11.104-3.297-11.44-8.448h-.35c-5.151 6.449-11.863 8.332-19.815 8.288-14.825-.073-21.493-7.602-21.464-15.992.044-9.704 6.77-13.79 14.723-15.526 4.071-.86 12.723-2.728 17.32-4.027 6.712-1.882 9.367-2.597 9.382-6.274l.044-8.39c.058-11.921-5.939-13.716-13.526-13.745-10.244-.059-12.724 2.874-12.739 4.932 0 2.801 4.582 2.962 4.553 7.82-.015 3.97-3.736 6.158-7.967 6.144-4.596-.03-7.748-2.977-7.734-6.8.044-8.084 12.607-13.614 23.551-13.57 15.35.073 26.98 7.048 26.907 20.72l-.19 37.952c0 2.495.686 4.436 3.692 4.436 1.473 0 2.655-1.138 3.356-1.372.802-.291 1.006-.146 1.138.117.087.204.175.613-.482 1.24v.015zm-20.603-34.64c-16.97 5.5-25.272 6.055-26.221 17.962-.189 2.787-.204 6.916.132 9.411.51 3.386 1.721 7.953 9.674 7.996 8.828.044 16.269-6.682 16.298-11.98l.117-23.39zm102.768 5.924c.145 6.683.131 13.92 3.983 19.698a21.895 21.895 0 008.915 7.661 21.714 21.714 0 009.675 2.014c4.815-.117 9.732-.891 13.57-4.057 2.932-2.422 5.107-5.807 6.23-9.426 1.386-4.465.452-8.872 2.16-8.915 2.349-.059 1.751 3.05 1.736 3.56-.131 3.502-1.328 7.208-3.137 10.272-4.246 7.165-12.199 10.112-20.224 10.316-24.076.613-35.34-13.307-35.72-31.896-.35-16.97 8.886-33.138 31.372-33.707 20.953-.525 28.92 13.629 29.197 27.797.088 4.421-1.473 5.793-5.019 5.851l-41.527-.102c-.526 0-1.241.03-1.226.905l.015.029zm.102-3.546c.014 1.036.554.876 1.08.861l33.91.219c.525 0 1.415-.321 1.386-1.211-.175-6.858-.146-14.256-3.356-20.574-2.728-5.384-8.74-8.682-14.723-8.828-3.72-.087-7.427 1.05-10.33 3.692-5.501 4.99-7.311 13.103-7.734 20.238-.131 2.218-.277 4.144-.248 5.618l.015-.015z" fill="url(#paint0_linear_1151_3178)"/><path d="M509.475 41.803l9.221-14.183a8.986 8.986 0 015.545 2.598l13.235 11.6-13.235 11.6a8.888 8.888 0 01-5.53 2.583l-9.236-14.198zm-28.351-14.197a8.968 8.968 0 00-5.531 2.582l-13.234 11.6 13.234 11.6a8.988 8.988 0 005.545 2.598l9.222-14.183-9.236-14.197zm32.976-4.582a8.986 8.986 0 00-2.597-5.545l-11.6-13.234-11.601 13.234a8.89 8.89 0 00-2.582 5.53l14.212 9.237 14.183-9.222h-.015zm-28.366 37.573a8.987 8.987 0 002.598 5.545l11.6 13.234 11.6-13.234a8.887 8.887 0 002.583-5.53l-14.198-9.237-14.183 9.222zm32.977-4.582c-2.466.22-6.931-2.349-6.931-2.349s2.568 4.48 2.349 6.931l18.327 14.825c1.561 1.196 2.233.525 1.095-1.094L518.726 56l-.015.014zm-7.208-25.797s4.625-2.831 7.193-2.598l14.84-18.341c1.196-1.561.525-2.233-1.094-1.094L514.1 23.025c.234 2.567-2.597 7.193-2.597 7.193zm-23.449-.263s-2.568-4.48-2.349-6.93L467.378 8.198c-1.561-1.196-2.232-.525-1.094 1.095l14.825 18.326c2.466-.219 6.931 2.35 6.931 2.35l.014-.015zm.278 23.448s-4.626 2.831-7.194 2.598l-14.839 18.341c-1.197 1.561-.526 2.233 1.094 1.094l18.341-14.839c-.233-2.568 2.598-7.194 2.598-7.194z" fill="#5A1E97"/><mask id="mask0_1151_3178" style="mask-type:luminance" maskUnits="userSpaceOnUse" x="462" y="4" width="76" height="76"><path d="M509.475 41.803l9.221-14.183a8.986 8.986 0 015.545 2.598l13.235 11.6-13.235 11.6a8.888 8.888 0 01-5.53 2.583l-9.236-14.198zm-28.351-14.197a8.968 8.968 0 00-5.531 2.582l-13.234 11.6 13.234 11.6a8.988 8.988 0 005.545 2.598l9.222-14.183-9.236-14.197zm32.976-4.582a8.986 8.986 0 00-2.597-5.545l-11.6-13.234-11.601 13.234a8.89 8.89 0 00-2.582 5.53l14.212 9.237 14.183-9.222h-.015zm-28.366 37.573a8.987 8.987 0 002.598 5.545l11.6 13.234 11.6-13.234a8.887 8.887 0 002.583-5.53l-14.198-9.237-14.183 9.222zm32.977-4.582c-2.466.22-6.931-2.349-6.931-2.349s2.568 4.48 2.349 6.931l18.327 14.825c1.561 1.196 2.233.525 1.095-1.094L518.726 56l-.015.014zm-7.208-25.797s4.625-2.831 7.193-2.598l14.84-18.341c1.196-1.561.525-2.233-1.094-1.094L514.1 23.025c.234 2.567-2.597 7.193-2.597 7.193zm-23.449-.263s-2.568-4.48-2.349-6.93L467.378 8.198c-1.561-1.196-2.232-.525-1.094 1.095l14.825 18.326c2.466-.219 6.931 2.35 6.931 2.35l.014-.015zm.278 23.448s-4.626 2.831-7.194 2.598l-14.839 18.341c-1.197 1.561-.526 2.233 1.094 1.094l18.341-14.839c-.233-2.568 2.598-7.194 2.598-7.194z" fill="#fff"/></mask><g mask="url(#mask0_1151_3178)"><path d="M502.748 42.825l3.298-2.685 19.786-7.383-19.772 9.79-3.312.278z" fill="#F6E8FD"/><path d="M498.458 52.324l1.459-.963.015 29.547-4.961-5.18 3.487-23.404z" fill="#9D2FE5"/><path d="M472.412 46.283l25.404-6.435-15.292 10.841 3.181-5.15-13.293.744z" fill="#5655F5"/><path d="M499.377 38.9l-6.974-11.615-5.837-8.711 3.006-4.626 9.805 24.952z" fill="#9D2FE5"/><path d="M496.372 48.705l.321 1.692-2.525 23.04-.963-.394 3.167-24.338zm3.078-3.181l.292 5.136 3.634 17.948.379-18.663-4.305-4.421z" fill="#F6E8FD"/><path d="M507.665 9.177L500.34 35.12l9.937-22.602-2.612-3.341z" fill="#EC544D"/><path d="M509.781 11.876L500.34 35.12l14.665-16.547-5.224-6.697z" fill="#9D2FE5"/><path d="M490.987 11.103l8.653 27.3 1.634-36.974-.116.014-10.171 9.66z" fill="#F6E8FD"/><path d="M491.936 10.198l6.216 13.395L499.728 2.8l-7.792 7.398z" fill="#322278"/><path d="M473.069 31.706l-3.575 3.166 31.051 5.326-27.476-8.492z" fill="#FFFF98"/><path d="M466.211 37.776l32.422 2.685-1.911-1.342-26.571-4.83-3.94 3.487z" fill="#9D2FE5"/><path d="M461.396 41.41v5.34l19.99-4.538-19.99-.803z" fill="#F6E8FD"/><path d="M489.674 70.753l6.245-17.437-8.871 14.752 2.626 2.685z" fill="#B1FDA4"/><path d="M508.847 71.92l-5.165-20.633 3.458 22.588 1.707-1.955z" fill="#F6E8FD"/><path d="M540 41.19l-43.278.628 40.36 2.014L540 41.19z" fill="#9BFCFD"/><path d="M535.71 45.072l-30.846-2.247 2.991 1.123 22.456 5.983 5.399-4.859z" fill="#9D2FE5"/><path d="M528.677 51.419l-12.636-3.867 9.98 6.26 2.656-2.393z" fill="#F6E8FD"/><path d="M524.518 26.41L506.06 42.547l20.866-12.885-2.408-3.254z" fill="#E29DE9"/><path d="M532.369 34.566l-23.566 6.478 25.638-4.596-2.072-1.882z" fill="#9D2FE5"/><path d="M535.389 37.295l-9.878 2.48 12.884.234-3.006-2.714z" fill="#F6E8FD"/></g><defs><linearGradient id="paint0_linear_1151_3178" x1="156.989" y1="193.102" x2="294.98" y2="-45.906" gradientUnits="userSpaceOnUse"><stop stop-color="#2B2838"/><stop offset=".17" stop-color="#42286C"/><stop offset=".4" stop-color="#15133E"/><stop offset=".7" stop-color="#392868"/><stop offset=".85" stop-color="#291F69"/><stop offset=".88" stop-color="#2B2170"/><stop offset="1" stop-color="#362C92"/></linearGradient></defs></svg>