<svg width="532" height="219" fill="none" xmlns="http://www.w3.org/2000/svg"><g clip-path="url(#clip0_1151_3068)"><path d="M195.398 174.916l-6.454 1.512 2.982 4.046-32.214 24.346-44.66-1.666-13.202-15.386v-67.592l8.05-7.308 6.468 34.58 16.268 19.838-18.452 17.696 6.804 4.62 5.054-3.122-2.352-2.912c12.404-10.752 40.096-12.768 40.096-12.768l.126-5.614-16.576 3.458-.994-1.624 10.444-2.954 7.154-50.12 13.146-16.254-3.122-2.24-11.718 10.892-20.216-.252-4.55 4.97-4.144 8.862 3.458 1.008 6.468-5.726c3.304.826 11.55 4.34 11.55 4.34 0 10.934-4.214 37.226-4.214 37.226-6.328.77-10.822-.252-10.822-.252l-9.576-23.002.378-28.616 8.148-5.824h10.64l8.778-7.504-5.642-.924-3.668 3.794-8.036-1.162-1.33-6.636-37.604 20.076V37.926l13.944-18.76 33.054-4.704 22.344 5.18 20.482 10.654-1.148 6.216 5.698-1.89-1.428-7.602-22.974-15.302L135.548 0H88.312L52.038 19.082 23.702 49.504 4.788 85.022l3.906 70.868-6.23-.518-2.478 2.184 41.804 24.878 35.98-1.792 9.338 2.604 3.094-2.212-28.7-17.136-1.218-4.928-2.982-12.082-11.284-21.042-2.296-45.318 30.786-47.614 27.342-13.58.896 3.08L91 41.356l-2.058 32.718-15.092-9.618-13.104 6.23-.322 4.816 9.31-4.032 11.284 24.332 3.808 20.678s7.112 8.316 8.036 21.49v54.81l-11.48 9.562-14.154-1.148-23.716-10.136-3.696 1.386-1.316 3.5 6.468-.784 15.19 11.396 22.568 8.61 16.828 2.296 19.698.952s37.87-7.462 44.17-7.644l33.978-29.456-2.002-6.384v-.014z" fill="url(#paint0_linear_1151_3068)"/><path d="M189.028 104.314l-17.85 11.368-7.266 45.64 20.72 11.704 27.37-16.478s1.47-13.412 5.124-21.448l-8.918-7-6.496 4.396 2.03 4.746 3.808-4.2 3.612 3.164L204.134 154l-19.264 9.506-5.306-6.37 3.248-18.48 28.63-20.776s-10.5 1.008-22.428-13.58l.014.014zm2.772 18.844c-6.44 0-7.798 5.46-7.798 5.46l-2.8 1.484 1.232-11.032 2.338-1.176 7.014 5.264h.014z" fill="url(#paint1_linear_1151_3068)"/><path d="M296.646 119.238l2.03 6.034 4.914-7.14 8.582 22.148-4.424 27.44s4.914 8.022 6.272 10.192l19.236-8.008s5.796-13.356 8.834-14.574l15.862-2.786-1.022-20.37-3.416-.434s-.28 8.904-5.446 11.074h-2.716l-.252-27.538c-.014-2.072.392-4.144 1.274-6.02 1.288-2.716 3.64-5.236 7.518-1.638l3.038-2.044-4.508-6.79s-7.224 5.964-21.084 4.06l3.15 7.084 1.092 44.576-5.222 8.862-7.826 1.19-2.45-5.166 2.996-12.096-1.12-39.69s-8.96 4.76-23.086 2.87l-2.212 8.75-.014.014z" fill="url(#paint2_linear_1151_3068)"/><path d="M372.344 164.108l3.066-46.998 7.042-3.85.434-3.654-8.162 2.87-10.57-.574.364-5.25-1.708-1.806-4.704 6.496-4.214 9.716 9.338-3.136 1.918 35.364-1.778 9.674-3.514 2.744 9.45 7.336-21.77 18.676-10.878-3.304 9.17-16.114 5.404 3.766-4.648 2.352 1.708 6.384 8.12-6.664-2.114-3.276-7.364-7.826-7.35 1.484-1.974 7.056-10.29 13.02 15.358 10.094s18.41 5.278 26.964-7.854c1.638-2.506 2.534-5.418 2.8-8.386.266-2.968.868-9.422 6.86-11.172l-6.916-7.14-.042-.028z" fill="url(#paint3_linear_1151_3068)"/><path d="M448.224 133.266c-6.79-4.676-8.54-10.724-8.54-10.724l-5.544-.35-1.106 6.664 5.264-1.694 4.592 8.134-13.342 15.666-8.456-4.004-6.636-27.888 9.646-18.312 1.806-.686 3.71 5.824-1.988 3.276s.784.714 1.232.868c.448.154 13.692-10.654 13.692-10.654l-2.786-3.64-2.912 2.436-6.594-8.988-16.562 11.34-9.954 19.306v28.196l8.288 8.596 25.102 2.45.378-6.818c1.358-5.88 10.71-15.792 10.71-15.792v-3.206z" fill="url(#paint4_linear_1151_3068)"/><path d="M485.996 158.76l-5.334 2.366-.462-6.09 5.768-37.282-7.98-5.46-14.644-8.512-10.528 1.484-7.798 6.384-1.134 5.096 6.062 6.79 7.098-.532 1.484-2.506-5.992-.784-1.064-1.974 9.436-9.8 13.076 11.592-4.746 12.67-19.264 7.224-8.386 15.848 4.424 11.172 22.12-.812 7.854-7.952 1.442 5.572 3.99 2.814 6.3-1.372-1.736-5.978.014.042zm-22.288 0l-11.284-3.22 4.298-11.55s8.064-4.564 12.628-4.83c0 0 1.526 7.854 3.486 12.712l-9.128 6.902v-.014z" fill="url(#paint5_linear_1151_3068)"/><path d="M402.332 153.776l-7.378 2.408 1.414-34.132.196-18.2 10.71-6.524.014-3.962-14.798 5.208-6.706-1.694-1.386-4.242L378 102.704l3.416 2.31 3.668-4.284 2.394 2.674-2.996 56.448-6.482 2.562 3.612 4.368 19.95-5.292.77-7.714z" fill="url(#paint6_linear_1151_3068)"/><path d="M394.338 55.93c-2.59 2.282-5.236 3.122-9.576-2.156l-1.176 1.652c4.578 5.544 1.652 10.122.742 11.508-1.316 2.002-3.878 5.698-5.404 8.75-1.806 3.612-.924 7.784 3.99 9.59l2.702-1.61c-3.108 6.132.63 8.862 6.888 10.668l8.862-2.646c-7.868-6.3-1.764-10.29 3.164-12.684l-1.4-3.178c-16.31 5.572 5.796-19.334 5.796-19.334l-15.484-20.356s4.592 16.506.868 19.796h.028zm-7.028 23.772l-3.906 2.17c-4.886-2.87.798-9.562.798-9.562 4.2-4.2 4.62 3.304 3.108 7.392z" fill="url(#paint7_linear_1151_3068)"/><path d="M368.76 65.044c-24.934.196-2.604 13.062-8.134 22.246-4.242 7.042-3.878 16.52 12.446 17.528l3.528-5.04c-7.546-4.662-1.246-9.366 1.89-11.676v-1.358c-9.366.798-.994-15.722-.994-15.722s-6.538-2.8-3.864-6.44c1.372-1.876 5.04-2.982 5.11 3.262l.994-.252c2.156-4.172 1.148-14.196-7.672-18.452 0 0 6.734 10.388-3.304 15.904zm-1.176 3.066c-2.73 4.886-.392 9.394 1.176 10.892-4.48.434-14.728-9.618-1.176-10.892z" fill="url(#paint8_linear_1151_3068)"/><path d="M348.838 45.29l-22.596 7.28-40.894 21.322-19.278 22.022c-.518.56-1.008 1.092-1.442 1.582v3.388c27.86-21.252 31.486-18.34 33.026-13.664.63 1.932.378 4.032-.56 5.838-9.492 18.172-29.106 31.5-40.614 41.552-11.494-10.052-31.108-23.38-40.614-41.552-.938-1.806-1.19-3.906-.56-5.838 1.54-4.676 5.18-7.602 33.026 13.664v-3.388c-.448-.49-.924-1.022-1.442-1.582l-19.278-22.022-40.894-21.322-22.596-7.28-19.6.476v2.324c7.952.77 14.812 3.15 20.58 5.082l9.758 4.2c14.252 7.77 26.39 19.068 5.516 22.106v4.172c16.996-3.514 37.94 23.212 37.94 23.212 5.096 4.606 1.946 40.922 1.946 40.922l-13.16 31.864s-26.264 22.708-28.364 24.248l2.982.882 15.512-7.378 14.056-12.544c3.85-2.338 23.576-10.15 31.206-13.86l-2.674-2.394-6.286 1.568-.084-.028-.042-.042-6.79-7.812c-4.886-8.834 5.348-32.06 5.348-32.06l14.91 16.128 9.59 18.83 9.59-18.83 14.91-16.128s10.22 23.226 5.348 32.06l-6.79 7.812-.042.042-.084.028-6.286-1.568-2.674 2.394c7.63 3.71 27.356 11.522 31.206 13.86L315.7 197.4l15.512 7.378 2.982-.882c-2.1-1.54-28.364-24.248-28.364-24.248l-13.16-31.864s-3.15-36.316 1.946-40.922c0 0 20.944-26.726 37.94-23.212v-4.172c-20.874-3.038-8.736-14.322 5.516-22.106l9.758-4.2c5.768-1.932 12.628-4.312 20.58-5.082v-2.324l-19.6-.476h.028z" fill="url(#paint9_linear_1151_3068)"/><path d="M510.44 116.214l-1.792 1.89-2.52-1.54-.784 2.072-.658 2.142h-1.722c.224 1.708.462 3.71.644 5.852l2.506-1.218-.952 2.002h-1.498c.126 1.456.21 2.982.28 4.522l1.638-.252.42.448-2.03.742c.126 4.452-.07 8.988-.966 12.614 0 0-.28 1.512-.966 3.85l2.59.966v-.756l1.442-.56 3.234.56.462 1.078h-3.696v.994h-4.76c-1.862 5.474-5.488 13.412-11.886 18.536 0 0-2.52 2.758-7.196 6.006l.084.308-.084 1.988-1.862-.238.616-.91-.056-.266a59.381 59.381 0 01-10.682 5.544l-1.12 1.988-2.184-.154-2.17 1.162.504.434-.63 1.736-2.982.21-.378-.476 2.436-.868-.644-.868 1.022-1.162c-1.022.28-2.058.532-3.122.756l-3.066 2.534-4.06-1.596-7.182.882-3.668-1.582-2.604 1.96.07.056v1.33l.728.644v.812l-1.134-.56-.63-1.344-1.61.462v-.574h-6.734v-2.982l-4.074-1.288-2.184 1.19-2.394-.238-.546-.322 2.198-.672 1.876-2.128-.35-.84-6.72-2.324-1.694.728v1.288l-.98.686-.63-.378-.896.378h-.462l1.358-1.26v-3.556l-6.58-7.434-.812.294-.938-.868 1.092-.168-2.17-2.45-1.568 1.498.434.77-1.33 1.344.294 1.19-.406.154-1.106-1.456-.7.672-1.358 3.738s5.544 7.616 18.788 15.428c0 0 11.088 6.678 26.698 7.77l1.344-1.918h1.554l.84-.518 1.666-.91-1.484 1.904-1.582.728.238.84c1.862.056 3.766.014 5.726-.112l7.602-.924 6.566-2.478 5.936-1.12 6.062-3.094s9.002-4.102 16.73-12.222c0 0 6.818-12.432 11.9-17.178 0 0 3.878-7.7 5.32-15.82l-1.008-1.274.238-1.582-2.268-.896 1.05-1.736-.714-1.288 1.68-.252-.168-1.162v-1.302l1.134.014.952-2.394c.056-2.702 0-5.558-.336-7.476 0 0-.7-6.944-2.884-13.51l-1.68 1.036v3.794l.098-.07zm-5.782 31.738l-.588-.224.588-.56v.784zm-99.33 24.332v-.308l.434-.196v.812l-.434-.308zm8.232 7.434l-.448-.588.434-.336.294.098-.28.826zm7.308 4.746l.294.098-.28.826-.448-.588.434-.336zm-.07 3.864l2.898-.448.42.448-2.38.868-.938-.868zm4.046 1.33l-1.134-.476 2.282-.658-1.134 1.12-.014.014zm1.162-2.464l-.448-.308v-.308h.868l-.42.616zm18.186 7.532l.826-1.372 1.218.168-2.044 1.204zm3.444-.924l-.336-.434.322-.252.21.07-.21.616h.014zm.812-1.456l-.336-.238.336-.224v.476-.014zm4.004 2.156l-.448-.308v-.308h.868l-.42.616zm11.186-4.256l-.448-.308v-.308h.868l-.42.616zm2.044.49l-.49-1.176 2.814.798.196.588-2.534-.21h.014zm4.34-.182l-.448-.308v-.308h.868l-.42.616zm1.106.112v-.42l.826.21-.826.21zm1.484-.966h-.336v-.462h.686l-.336.462h-.014zm1.232.238l-.336-.238.336-.224v.476-.014zm18.424-15.148l.112.392-.448-.154.336-.252v.014zm-.21-1.722l.07-.84.392.14-.462.714v-.014zm-5.53 1.008l1.736-.868 1.386.868.448.994h.826v1.05h-.826l-1.288-1.05-2.282.182v-1.176zm4.284 5.012l-1.022-.392v1.414h-1.078l.448-.448h-1.414v-.826l.602.252-.322-1.526h1.694l.616.77h1.19l-.742.77.028-.014zm1.162-2.114l-.084-.602.686-.266.098.77-.714.098h.014zm.924-2.576l-.322-.476.112-.322.434.154-.224.644zm.154-2.604l-.448-.588.434-.336.294.098-.28.826zm.644-3.052l-.266.952-.266-.336-1.106.294.616-.448.07-.35.574-1.05.952.63-.574.336v-.028zm13.902-16.758l-.084-.602.686-.266.098.77-.714.098h.014zm1.68-25.746l.532.56-.518.49-.42-.434.392-.616h.014zm.532 5.67l-1.75-.476.476-1.54-2.408.168.77-1.204 2.282-.07.042 1.204 1.232.854-.644 1.05v.014zm1.862 9.646l.434.154-.224.644-.322-.476.112-.322zm.448-26.628l.098.77-.714.098-.084-.602.686-.266h.014zm-.644 18.102l.294.098-.28.826-.448-.588.434-.336z" fill="url(#paint10_linear_1151_3068)"/><path d="M502.642 112.294l-.224 2.898 4.046-.476-1.12-1.61.35-1.414 2.226.364 2.52-1.358-.784-3.682.448-.602c-.574-1.372-2.982-6.902-5.726-10.808l-.266.952-.266-.336-1.106.294.616-.448.07-.35.322-.588-2.38-1.862h-1.792l-.826.308-1.05-.308.574-.812 1.372-1.806a120.44 120.44 0 01-8.582-9.24s-.504-.378-1.344-.98l-1.89.672-2.772-.476-.84.84-1.652.14-.112.994-.42.098-.308-1.568 1.526-.7-.238-.924 1.12-1.456-1.834-.854v-.798l.812-.308c-2.786-1.68-5.894-3.36-8.68-4.368l-11.354-3.36-2.674-.196-5.012 2.534.504-1.764.854-1.036-9.506-.686-3.206 2.17.126.714 2.478 1.05 1.05 1.176 2.394-1.176-.252 2.66-.392 2.954v1.064s1.974-.028 4.438.112l.224-1.498-.56-1.918.392-.07 1.05 1.358 1.484-.504-.644 1.232-1.26.77 1.036.308-.35.406c1.484.112 3.024.294 4.368.574l1.806-2.044s2.758-.924 3.374.154l1.232 3.388s3.724 1.092 7.994 3.08l.168-.462.77-.616.546.308v.504h.588l-.462.322-.728.098-.406.084c2.198 1.05 4.508 2.338 6.51 3.836l3.276-.448 1.904 1.736 3.738-1.092.35.728-2.702 3.976 5.628 6.062 7.728 14.56 1.106-2.744.63 2.268h-.028zm6.216-2.422v.784l-.588-.224.588-.56zM456.428 72.1l-1.484 1.092.42-1.68 1.918-.854-.854 1.442zm1.498 2.324l.658-1.232.84 1.232h-1.498zm2.324-1.232l-.84-1.26 1.68-.966-.84 2.24v-.014zm12.46 7.588l.07-.84.392.14-.462.714v-.014zm8.092-.42l-.252-.378.504-.504.168.168-.42.714zm4.69 2.45h-.35v-.28l.504-.196-.154.476zm13.79 19.054l.07-.84.392.14-.462.714v-.014zm1.834 2.954l-.448-.588.434-.336.294.098-.28.826zm-.21-2.226l.308-.84.77-.616.546.308v.504h.588l-.462.322-.728.098-1.036.224h.014z" fill="url(#paint11_linear_1151_3068)"/><path d="M422.954 70.882l.798-.826-.28-1.008-1.246-.686 1.54-.588 1.554.924 2.1-.742 1.498 1.092c3.738-.966 7.826-1.708 12.124-1.974l-.504-2.786s-2.52.14-6.552.826c0 0-4.578-1.358-5.726-1.974l-5.292 1.722-1.512-2.968 2.688-2.394-3.836-.868-3.08-.168-2.408 6.104-.588 2.814s-2.59 3.542-5.096 5.74c-.63.322-1.26.644-1.89.98l1.344 3.612s5.642-3.752 14.336-6.818l.028-.014zm4.9-6.034v1.33l-.98-.364.98-.966zm-8.232 4.564l.098.77-.714.098-.084-.602.686-.266h.014z" fill="url(#paint12_linear_1151_3068)"/><path d="M443.898 77.994l.126-2.184-2.478-1.75-1.96-3.402-2.674.63-4.256 4.032-.854 1.988s-3.64 2.562-4.914 3.654v.434s11.494-3.906 17.024-3.402h-.014z" fill="url(#paint13_linear_1151_3068)"/><path d="M431.088 70.952c-1.89.14-3.682.826-3.682.826l-1.428 1.876-1.946-.588c-2.982 1.106-6.146 2.982-6.146 2.982 1.512.294 3.752 1.05 3.752 1.05l.224-1.722 2.506 1.064 1.288 2.996 4.634-6.216c.252-.574.798-2.254.798-2.254v-.014z" fill="url(#paint14_linear_1151_3068)"/><path d="M392.252 175.406c-2.31-.21-3.136-.644-3.136-.644l-5.642 1.862 2.646 3.962c1.918-1.806 3.85-2.548 5.53-2.758l.588-.546v-1.876h.014z" fill="url(#paint15_linear_1151_3068)"/><path d="M527.996 148.19l1.148-.252.322-.448.742-.56.588-3.094c-4.284-.182-6.608-2.394-7.868-4.662l-1.736.63-.938-.868 2.366-.364c-1.106-2.324-1.176-4.522-1.176-4.522-.728-11.564 9.618-11.648 9.618-11.648l-1.848-10.066c-.98.196-1.89.294-2.744.336l.112.196-.336 1.358-1.582-.056-.798 1.652 1.232.686-1.904 1.078-1.708-1.834-.476-3.528.896.896 1.876 1.134-.504-1.792c-2.142-.448-3.71-1.442-4.844-2.618l-3.332 1.96c6.566 19.838.63 38.668.63 38.668-1.274 5.32-10.948 24.374-10.948 24.374l-3.598 1.778c-9.968 11.956-24.5 17.57-24.5 17.57l-3.178 1.862-13.482 3.948c-2.898-.434-6.538-.49-8.848-.462l-2.996 1.652-1.82-1.666c-13.692-.714-25.536-6.818-25.536-6.818l-3.71-.126-5.74-5.684-5.964-3.542-6.356-8.008c-1.19.098-2.254.154-3.192.182l.21.098-2.268.98v1.246c1.89.238 3.15 1.008 3.15 1.008 7.882 4.074 7.77 12.642 7.77 12.642l.392.63.434-.308.476.77-.56.07 1.232 1.96-1.526.714-.434 3.164 2.086 1.386a66.54 66.54 0 014.564-1.89v-1.694l-1.148-2.618 3.514.728 2.1 2.212c2.66-.588 3.64-.294 3.64-.294 13.762 2.73 9.954 13.202 9.954 13.202l10.052.574c.112-.406.252-.784.406-1.148l-1.988-.84.574-.994 1.54-.476.518-1.736 1.022-.448 2.73-.434c2.478-1.302 4.872-1.218 4.872-1.218 7.014-.952 10.892 6.16 10.892 6.16l9.604-1.834-.7-1.75-.924-.63-1.036 1.596-1.4.532-.574-1.162-1.414-.364-1.092.798-.896-.574.784-2.212 2.73-1.918-.35 1.12-.882 1.148 1.82.896-.028-.98.532-.504.826.756.812-2.534 1.358-1.148 2.422 1.106.588-.476a9.493 9.493 0 012.856-2.31 6.754 6.754 0 011.176-.504c5.376-2.352 9.24-.63 11.592 1.358l1.694-.42.98.938-1.12 1.05c.826.966 1.232 1.736 1.232 1.736l8.162-6.09c-6.188-7.28 1.078-13.692 1.078-13.692 3.024-3.738 6.272-4.298 8.946-3.794l.042-.504 1.456-.728 1.078.14.434-.7.896.546-.434.7-1.554.56-.238.49c2.422.91 4.06 2.478 4.06 2.478l5.698-8.526s-1.666-.462-3.206-1.89l-1.722.112-.378-1.176.784-.518c-1.232-1.96-1.876-4.928-.364-9.352 3.57-10.472 13.412-6.846 13.412-6.846l.952-4.984-.098-.434-1.722-.294h.056zm-4.186-29.4l.294.098-.28.826-.448-.588.434-.336zm-116.536 77.168l-.896-.42.896-.294v.714zm2.884-4.242l-1.022-1.386 2.296.742-1.274.644zm4.06 1.498l-.42-.434.392-.616.532.56-.518.49h.014zm22.834 14.21l-.336-.238.336-.224v.476-.014zm1.246-2.674l-.336-.434.322-.252.21.07-.21.616h.014zm.672-1.218l.35-1.428 2.212.77-2.562.644v.014zm23.17 2.926v.714l-.896-.42.896-.294zm-1.33-3.444l-.182-.476.588-.42.476.77-.882.112v.014zm5.964-1.26l-.084-.602.686-.266.098.77-.714.098h.014zm24.36-7.322l-2.002-.336.098-.714-1.288-1.386.672-1.036 1.722.532-.042 1.89 1.036.658-.182.392h-.014zm.462 4.522l-.084-.602.686-.266.098.77-.714.098h.014zm2.618-5.488v-.308l.434-.196v.812l-.434-.308zm.798-1.372h-.336v-.462h.686l-.336.462h-.014zm1.008.238l-.336-.238.336-.224v.476-.014zm17.22-17.864l-.448-.588.434-.336.294.098-.28.826zm8.68-49.224l-1.652 1.302-.504-1.596 2.17.28-.014.014zm-.042 27.174l.07-.84.392.14-.462.714v-.014zm3.668-1.12l-1.4.728.112-.672-1.54-.98 1.204.224.49-.308.966-.98 1.176 2.296-1.022-.308h.014zm2.478.364l-.448-.588.434-.336.294.098-.28.826z" fill="url(#paint16_linear_1151_3068)"/><path d="M513.478 98.798l2.24-.42c1.33-4.634 5.642-5.964 5.642-5.964l-5.698-8.526c-2.212 3.262-6.888 2.744-6.888 2.744-5.488-.308-9.324-5.866-9.324-5.866-3.136-3.346-.882-12.208-.574-13.37l-2.674.28-.854-.476h-2.198l-1.162-2.534-.7 2.534-2.716 1.106-1.694 1.19h-2.198l-1.358 1.19-1.358-2.38c-4.172-1.372-7.252-3.276-7.252-3.276l-.294-.28-4.2-.028 2.772-1.33-2.772-2.646v1.288l-1.484-.154-1.26 1.26-1.47-.924-1.26.476.518-1.036h2.296v-1.932h1.834l-1.526-3.71-2.562-2.24-1.344 4.424-2.982 1.596-1.848.574-1.162 1.974-3.318-2.604-5.656 3.808-1.26 1.456c17.248-.896 31.29 5.978 31.29 5.978l14.434 7.77 6.986 7.574c6.062 7.098 9.632 13.3 11.62 17.472l.77-1.022.658-3.962-.014-.014zm-.322-8.078l1.736-.868 1.386.868.448.994h.826v1.05h-.826l-1.288-1.05-2.282.182V90.72zm-24.458-18.942l-.84-1.26 1.68-.966-.84 2.24v-.014zm2.142-2.324l-.42-.434.392-.616.532.56-.518.49h.014zm21.658 20.16l-.588-.224.588-.56v.784z" fill="url(#paint17_linear_1151_3068)"/></g><defs><linearGradient id="paint0_linear_1151_3068" x1="98.7" y1="80.528" x2="98.7" y2="199.542" gradientUnits="userSpaceOnUse"><stop stop-color="#E20068"/><stop offset=".06" stop-color="#DA0066"/><stop offset=".15" stop-color="#C50061"/><stop offset=".26" stop-color="#A30058"/><stop offset=".39" stop-color="#73004D"/><stop offset=".53" stop-color="#37003F"/><stop offset=".6" stop-color="#190038"/></linearGradient><linearGradient id="paint1_linear_1151_3068" x1="190.526" y1="91.014" x2="190.526" y2="210.028" gradientUnits="userSpaceOnUse"><stop stop-color="#E20068"/><stop offset=".06" stop-color="#D80065"/><stop offset=".15" stop-color="#C0005F"/><stop offset=".26" stop-color="#980056"/><stop offset=".4" stop-color="#610049"/><stop offset=".55" stop-color="#190038"/></linearGradient><linearGradient id="paint2_linear_1151_3068" x1="327.292" y1="76.09" x2="327.292" y2="195.118" gradientUnits="userSpaceOnUse"><stop stop-color="#E20068"/><stop offset=".08" stop-color="#D50065"/><stop offset=".24" stop-color="#B5005D"/><stop offset=".44" stop-color="#810051"/><stop offset=".68" stop-color="#3A0040"/><stop offset=".79" stop-color="#190038"/></linearGradient><linearGradient id="paint3_linear_1151_3068" x1="355.082" y1="84.042" x2="355.082" y2="203.112" gradientUnits="userSpaceOnUse"><stop stop-color="#E20068"/><stop offset=".08" stop-color="#D20064"/><stop offset=".23" stop-color="#A8005A"/><stop offset=".44" stop-color="#65004A"/><stop offset=".66" stop-color="#190038"/></linearGradient><linearGradient id="paint4_linear_1151_3068" x1="425.978" y1="76.356" x2="425.978" y2="195.384" gradientUnits="userSpaceOnUse"><stop stop-color="#E20068"/><stop offset=".07" stop-color="#D80065"/><stop offset=".17" stop-color="#C0005F"/><stop offset=".31" stop-color="#980056"/><stop offset=".47" stop-color="#610049"/><stop offset=".64" stop-color="#1B0038"/><stop offset=".65" stop-color="#190038"/></linearGradient><linearGradient id="paint5_linear_1151_3068" x1="467.59" y1="84.933" x2="462.871" y2="206.109" gradientUnits="userSpaceOnUse"><stop stop-color="#E20068"/><stop offset=".06" stop-color="#D60065"/><stop offset=".18" stop-color="#B7005D"/><stop offset=".33" stop-color="#850051"/><stop offset=".52" stop-color="#410041"/><stop offset=".62" stop-color="#190038"/></linearGradient><linearGradient id="paint6_linear_1151_3068" x1="392.644" y1="84.98" x2="392.644" y2="205.226" gradientUnits="userSpaceOnUse"><stop stop-color="#E20068"/><stop offset=".06" stop-color="#DA0066"/><stop offset=".16" stop-color="#C50061"/><stop offset=".27" stop-color="#A30059"/><stop offset=".4" stop-color="#74004D"/><stop offset=".54" stop-color="#39003F"/><stop offset=".62" stop-color="#190038"/></linearGradient><linearGradient id="paint7_linear_1151_3068" x1="378.07" y1="65.24" x2="408.954" y2="65.24" gradientUnits="userSpaceOnUse"><stop stop-color="#FF0080"/><stop offset=".96" stop-color="#FF0080"/></linearGradient><linearGradient id="paint8_linear_1151_3068" x1="356.692" y1="76.986" x2="380.702" y2="76.986" gradientUnits="userSpaceOnUse"><stop stop-color="#FF0080"/><stop offset=".96" stop-color="#FF0080"/></linearGradient><linearGradient id="paint9_linear_1151_3068" x1="256.48" y1="80.906" x2="256.48" y2="200.284" gradientUnits="userSpaceOnUse"><stop stop-color="#E20068"/><stop offset=".07" stop-color="#D80065"/><stop offset=".18" stop-color="#BF005F"/><stop offset=".32" stop-color="#950055"/><stop offset=".49" stop-color="#5C0048"/><stop offset=".67" stop-color="#190038"/></linearGradient><linearGradient id="paint10_linear_1151_3068" x1="400.484" y1="154.294" x2="515.354" y2="154.294" gradientUnits="userSpaceOnUse"><stop stop-color="#FF0080"/><stop offset=".96" stop-color="#FF0080"/></linearGradient><linearGradient id="paint11_linear_1151_3068" x1="400.484" y1="91.182" x2="515.354" y2="91.182" gradientUnits="userSpaceOnUse"><stop stop-color="#FF0080"/><stop offset=".96" stop-color="#FF0080"/></linearGradient><linearGradient id="paint12_linear_1151_3068" x1="407.274" y1="68.068" x2="441.07" y2="68.068" gradientUnits="userSpaceOnUse"><stop stop-color="#FF0080"/><stop offset=".96" stop-color="#FF0080"/></linearGradient><linearGradient id="paint13_linear_1151_3068" x1="426.86" y1="76.034" x2="444.01" y2="76.034" gradientUnits="userSpaceOnUse"><stop stop-color="#FF0080"/><stop offset=".96" stop-color="#FF0080"/></linearGradient><linearGradient id="paint14_linear_1151_3068" x1="417.886" y1="75.194" x2="431.088" y2="75.194" gradientUnits="userSpaceOnUse"><stop stop-color="#FF0080"/><stop offset=".96" stop-color="#FF0080"/></linearGradient><linearGradient id="paint15_linear_1151_3068" x1="383.488" y1="177.674" x2="531.076" y2="177.674" gradientUnits="userSpaceOnUse"><stop stop-color="#FF0080"/><stop offset=".96" stop-color="#FF0080"/></linearGradient><linearGradient id="paint16_linear_1151_3068" x1="383.488" y1="159.964" x2="531.076" y2="159.964" gradientUnits="userSpaceOnUse"><stop stop-color="#FF0080"/><stop offset=".96" stop-color="#FF0080"/></linearGradient><linearGradient id="paint17_linear_1151_3068" x1="383.488" y1="78.778" x2="531.076" y2="78.778" gradientUnits="userSpaceOnUse"><stop stop-color="#FF0080"/><stop offset=".96" stop-color="#FF0080"/></linearGradient><clipPath id="clip0_1151_3068"><path fill="#fff" d="M0 0h532v219H0z"/></clipPath></defs></svg>