<svg width="600" height="210" fill="none" xmlns="http://www.w3.org/2000/svg"><g clip-path="url(#clip0_1151_3407)"><path d="M492.984 27.06l-54.267 10.68 2.767 25.244c-.521.209-12.451-.61-22.879 10.696 0 0-3.258-3.704-9.818-5.995-6.977-2.425-11.589-1.666-11.589-1.666s.372-1.607.893-4.894c.521-3.288.416-8.539-.521-12.69-4.433-19.65-26.761-24.738-43.854-23.012-17.211 1.726-69.603 8.792-69.603 8.792l3.317-12.66-42.307-.446-33.426-1.086-8.866-16.14-5.548 1.13 6.173 14.876s-7.512 1.696-13.537 2.633c-4.284.67-14.474 2.425-14.474 2.425l7.14 23.771s-5.638 3.243-15.024 6.769c-6.412 2.41-12.035 3.496-12.035 3.496s-7.051-13.582-14.191-18.208c-4.686-3.035-12.064-6.694-20.499-7.022-16.854-.654-32.995 1.652-70.14-2.35-14.92-1.607-42.35-5.087-50.205-6.292a.438.438 0 00-.506.446v26.122l23.757 32.4a.847.847 0 00.952.312c2.306-.76 10.294-2.663 20.826-4.047 7.572-.996 16.943-.431 16.943-.431 9.506 12.763 16.007 36.193 16.096 39.912l-12.139 2.023s-1.68 7.676-3.406 11.707c-2.053 4.79-4.612 11.618-4.612 11.618s3.809 8.063 5.52 15.039c5.042 20.603 5.741 37.413 5.741 37.413l22.195-2.216c.253-.164 1.28-2.024 1.607-2.633 7.378-13.805 14.206-25.17 25.69-35.896 3.362-3.138 8.687-7.586 12.317-10.413 0 0-.163 2.232 1.175 6.337 4.418 13.508 15.56 12.332 25.17 13.046 12.436.938 24.902 1.503 37.324 2.633.193.015.728.09.907-.014l8.226-13.984c-3.793-4.224-6.381-8.657-7.557-14.236 0 0 13.24-3.302 24.069-4.953 12.035-1.815 24.412-2.187 24.412-2.187.133.059-.045 1.086-.313 4.001-.431 4.642-.565 6.293-.565 6.293l5.668 11.186c8.553-3.852 17.226-5.667 17.226-5.667s-2.663 3.748-5.802 6.054c-2.722 1.994-4.805 3.704-4.805 3.704s1.473 3.66 2.276 6.873c1.294 5.192 1.89 9.104 1.89 9.104s10.918-2.068 30.792.61c19.874 2.677 35.702 9.446 35.702 9.446l8.985-19.844s11.083-4.716 32.236-.238c13.82 2.915 24.724 12.153 30.659 18.341 9.387-15.232 13.492-17.925 13.492-17.925l7.498 8.212s14.489-4.671 27.029-6.814c8.301-1.413 16.75-2.038 25.155-1.353 11.172.907 20.767 4.998 28.115 13.641 7.289 8.568 11.098 18.743 13.656 29.588l19.488 1.517s9.401-26.672 12.019-33.292c3.347-8.464 9.372-19.457 9.372-19.457 1.056.431 5.876 2.871 11.826 1.755 5.564-1.041 13.24-7.096 13.24-7.096 1.264-4.046 4.626-12.481 4.626-12.481.268-.61-.476-3.436-.699-4.061l-1.384-6.129 13.344-4.596 4.016-7.379s-4.968-2.871-6.753-5.028c-1.785-2.157-6.174-9.937-6.174-9.937l-10.844 7.929-1.636-16.676 25.303-18.936-.386-14.549-17.271 5.995-21.927-12.496-.06-3.05V45.06l-59.116-21.11s-2.157 7.929-2.529 9.506c-1.368 5.742-3.644 8.732-3.644 8.732s-1.131-10.532-1.369-11.916" fill="#000A00"/><path d="M521.768 193.117c-.029-.089-3.451-9.446-8.985-18.803-4.968-8.405-12.718-18.595-21.421-19.368l-2.172-.193.119-2.172c.045-.655.179-1.488.342-2.44.893-5.221 2.946-17.152-6.857-29.127-1.116 5.951-2.678 9.848-4.076 12.317l10.011.343-2.038 3.302s-.863 1.681-1.621 6.545c-.818 5.311-.06 11.023-.06 11.083l.387 2.871-2.871-.327c-.521-.06-13.046-1.473-24.456-1.473-3.228 0-6.084.119-8.479.342-8.717.818-28.026 3.883-28.205 3.912l-4.864.774 2.603-4.18c.402-.655 1.414-1.622 4.85-4.909 10.74-10.265 39.242-37.517 42.753-55.487 3.674-18.892-4.388-33.842-6.932-37.978l-17.613 4.805-2.827-23.965 52.438-10.086.446 2.157c.193.923 4.477 22.18-5.058 54.163 11.559-10.011 17.717-26.434 19.725-39.406l-10.19-1.309 5.133-19.22 56.617 20.202-2.172 2.484c-1.443 1.651-34.571 39.495-54.951 53.523 17.047 5.594 23.548 7.721 25.051 36.952 2.588.208 6.664.758 10.175 2.276 5.355 2.305 9.223 6.843 9.371 7.036l1.19 1.413-1.16 1.443c-2.767 3.436-13.492 27.372-20.023 42.619l-2.246 5.251-1.934-5.37z" fill="url(#paint0_linear_1151_3407)"/><path d="M557.366 44.002l-54.118-19.309-2.127-.758-.58 2.187-4.523 16.973-.61 2.306 2.366.297 7.943 1.012c-1.948 11.528-7.155 25.527-16.482 35.136 8.241-30.227 4.225-50.131 4.031-51.024l-.238-1.16-.416-2.008-2.008.387-50.772 9.475-1.651.298.268 2.216 2.574 21.808.282 2.395 2.336-.64 15.694-4.284c2.826 4.805 9.832 18.937 6.396 36.565-3.436 17.643-31.774 44.732-42.44 54.936-3.66 3.496-4.538 4.359-5.014 5.118l-1.398 2.246-2.41 3.868 4.508-.714 2.618-.417c.193-.03 19.487-3.094 28.145-3.912 2.365-.223 5.191-.342 8.39-.342 11.454 0 24.217 1.443 24.336 1.457l1.548.179 2.662.297-.357-2.647-.208-1.533s-.744-5.667.06-10.785c.654-4.269 1.398-5.965 1.517-6.233l1.041-1.695.134-.224c1.25 6.04.372 11.217-.193 14.43-.179 1.041-.313 1.859-.357 2.559l-.075 1.16-.119 2.023 2.009.179 1.16.104c13.581 1.205 25.913 27.475 29.513 37.487l1.042 2.886 1.785 4.983 2.082-4.864 1.205-2.827c6.516-15.203 17.182-39.034 19.874-42.366l.625-.774 1.071-1.338-1.101-1.309-.639-.759c-.164-.194-4.151-4.894-9.759-7.319-3.258-1.398-6.947-2.008-9.595-2.276-1.576-27.952-8.271-31.224-23.756-36.342 20.588-14.935 52.05-50.875 53.448-52.481l1.161-1.34 2.008-2.305-2.886-1.026v.044zm-33.128 96.589s6.486.059 11.439 2.201c4.954 2.142 8.554 6.412 8.554 6.412-7.2 9.386-20.335 43.14-20.335 43.14s-13.671-38.008-32.326-39.659c.224-3.883 6.01-20.678-10.264-36.669-1.934 15.858-6.962 19.398-6.962 19.398l10.473.357s-1.041 1.696-1.919 7.378c-.878 5.683-.06 11.723-.06 11.723s-12.927-1.488-24.723-1.488c-12.466 0-24.783 2.335-37.056 4.284 1.473-2.38 43.438-38.246 47.9-61.154 4.612-23.682-8.152-40.998-8.152-40.998l-16.675 4.552-2.276-19.294 48.212-9.267s5.073 24.113-7.096 59.562c8.137-4.894 23.132-19.532 26.494-47.2l-9.892-1.265 3.838-14.37 51.202 18.282s-38.989 44.643-58.492 55.636c20.856 7.051 26.777 6.367 28.131 38.454l-.015-.015zm-37.264-8.033l-6.575-.223c1.026-2.142 2.082-5.043 2.945-8.911 2.276 3.139 3.764 6.233 4.686 9.164l-1.071-.03h.015z" fill="#000A00"/><path d="M501.076 105.097c-.089 0-.178 0-.268-.059-4.388-1.994-7.795-2.395-13.418-3.065l-1.026-.119a.624.624 0 01-.536-.669c.03-.327.224-.595.729-.759.506-.163.908-.089.908-.089 5.548.654 9.104 1.19 13.671 3.258.297.134.595.833.461 1.13a.623.623 0 01-.536.357l.015.015z" fill="#000A00"/><path d="M79.229 178.346l-.045-.074a1.17 1.17 0 01-.104-.863c-.58-4.032-5.608-38.097-9.09-50.875l-.341-1.25 19.13-3.808c-.714-3.794-3.139-16.021-6.188-24.47-3.6-9.953-11.871-27.982-13.954-30.496-.238 0-.565.015-1.056.015-7.126 0-39.079-1.265-39.391-1.28l-.595-.03L3.422 30.63a1.367 1.367 0 01-.09-1.443 1.39 1.39 0 011.25-.758h.163c7.394.833 14.876 1.83 22.136 2.781 14.057 1.845 28.59 3.764 42.976 4.627 4.805.282 9.654.431 14.43.431 6.44 0 12.971-.268 19.397-.788 2.99-.238 5.668-.357 8.197-.357 8.449 0 15.441 1.368 21.391 4.21 15.322 7.289 21.987 25.214 24.605 35.24 2.454 9.461 2.618 18.12.476 25.75-2.157 7.647-6.278 14.147-12.243 19.309-.967.833-2.053 1.8-3.243 2.841-5.861 5.177-14.697 13.017-26.003 20.663-13.239 8.955-32.355 31.046-35.226 34.78v.148l-.446.506a.327.327 0 01-.074.06l-1.517 2.186-.358-2.454-.014-.015zm20.29-112.565c1.726 3.377 4.686 10.086 6.62 17.033 2.678 9.624 4.076 20.112 4.507 23.801 2.886-.64 11.187-3.942 12.288-4.626 6.352-3.987 9.669-12.957 8.241-22.344-.625-4.106-2.737-11.529-9.878-14.98-2.484-1.205-5.266-1.815-8.256-1.815-1.978 0-4.105.268-6.352.789-.282.06-.967.297-1.681.55-1.651.58-3.793 1.324-5.489 1.592z" fill="url(#paint1_linear_1151_3407)"/><path d="M4.582 29.633h.03c17.032 2.097 42.753 5.637 64.59 6.947 4.85.282 10.979.49 15.798.49 6.501 0 12.184-.044 18.759-.386 2.677-.223 6.292-.357 9.014-.357 7.171 0 13.418.967 19.949 4.076 13.091 6.233 20.454 21.049 23.95 34.452 2.425 9.297 2.573 17.672.476 25.125-2.098 7.453-6.055 13.701-11.856 18.729-5.802 5.028-16.111 13.804-29.112 23.414-13.894 10.874-31.418 31.924-32.83 33.977-.03-4.002-6.368-37.383-12.17-49.879l19.027-3.778s-2.752-15.561-6.471-25.84c-3.69-10.19-13.314-31.328-14.727-31.328h-.03c-.119.03-.61.044-1.383.044-7.185 0-38.097-.43-38.097-.43s-5.534-8.257-11.44-16.691C12.644 40.447 5.623 31.67 4.42 29.944a.199.199 0 01.163-.313zM96.9 63.563c.535.893 5.4 9.937 8.078 19.577 3.198 11.454 4.552 24.322 4.596 24.649 0 .104.134.178.342.149 7.26-1.399 12.764-4.091 17.093-8.346 5.191-5.117 6.441-13.016 5.355-20.112-.803-5.325-3.317-10.561-7.617-14.013-3.778-3.02-8.672-3.957-13.403-3.66m-31 115.764v.075c-.045.044-.075.059-.09.059s0-.045.074-.134M4.582 27.208c-.982 0-1.875.535-2.32 1.413a2.583 2.583 0 00.178 2.693l23.846 34.11.684.981 1.19.045c1.309.06 32.295 1.28 39.436 1.28h.431c2.35 3.6 9.922 20.007 13.433 29.691 2.752 7.632 5.013 18.417 5.92 23.103l-16.69 3.317-2.544.506.684 2.499c3.422 12.525 8.33 45.713 9.045 50.533a2.42 2.42 0 00.193 1.324l.774 5.296 3.168-4.612.923-.833-.045-.342c3.63-4.552 21.882-25.482 34.646-34.11 11.365-7.691 20.246-15.545 26.122-20.752 1.19-1.056 2.261-2.008 3.228-2.841 6.143-5.326 10.383-12.005 12.614-19.889 2.202-7.84 2.053-16.72-.461-26.39-2.663-10.234-9.491-28.532-25.244-36.029-6.114-2.9-13.269-4.314-21.897-4.314-2.559 0-5.266.119-8.286.372a239.04 239.04 0 01-19.294.788c-4.745 0-9.58-.148-14.355-.431-14.34-.863-28.844-2.767-42.887-4.612-7.245-.952-14.742-1.948-22.15-2.767H4.79l-.164-.014-.044-.015zm96.722 39.42c1.25-.327 2.633-.788 4.106-1.308a37.263 37.263 0 011.562-.521c2.157-.506 4.195-.759 6.084-.759 2.841 0 5.37.55 7.721 1.696 6.649 3.213 8.628 10.205 9.208 14.072 1.353 8.911-1.741 17.405-7.691 21.139-1.101.655-7.334 3.094-10.621 4.106-.581-4.567-1.964-13.91-4.374-22.597-1.711-6.114-4.18-12.094-5.995-15.857v.03zm376.982 43.378c-1.666 8.866-8.375 25.438-31.938 25.929-22.314.461-32.147-17.985-32.444-31.641-.283-13.656 14.667 17.747 29.96 17.419 12.852-.267 32.459-19.636 32.712-19.546.669.252 1.844 7.11 1.71 7.839zm-2.052-45.014l-9.223 29.424-21.288 3.035-3.748-14.474 33.411-22.552.848 4.567z" fill="#000A00"/><path d="M444.087 129.999c-.491 0-.967 0-1.458-.029-6.292-.268-12.228-2.083-17.167-5.266-7.095-4.582-11.603-11.975-13.403-21.972-1.071-5.98-.654-11.692 1.265-16.973 1.919-5.281 5.043-9.788 9.297-13.388 4.255-3.6 9.268-5.936 14.906-6.962 2.053-.372 3.912-.55 5.682-.55 3.377 0 6.56.624 10.309 2.082l-.238-1.294 20.335-3.675-8.375 25.884-10.8 3.898-.535-.73c-2.648-3.644-4.716-4.983-7.661-4.983a12.5 12.5 0 00-2.127.209c-2.648.476-4.597 1.8-5.966 4.046-1.398 2.29-1.814 4.85-1.279 7.825.863 4.775 4.076 9.624 9.342 9.699h.149c4.15 0 7.111-2.708 9.029-8.271l.357-1.012 1.057.238c13.041 2.916 19.512 4.84 19.413 5.772-.581 5.712-3.154 10.963-7.632 15.575l-.134.134c-4.953 5.132-11.989 8.494-19.799 9.476-1.518.193-3.05.282-4.552.282l-.015-.015z" fill="url(#paint2_linear_1151_3407)"/><path d="M471.845 63.52l-7.572 23.399-9.401 3.392c-2.708-3.72-5.132-5.49-8.643-5.49-.729 0-1.502.075-2.35.224-2.976.535-5.237 2.067-6.769 4.596-1.547 2.53-2.023 5.415-1.443 8.673.967 5.34 4.582 10.606 10.502 10.696h.164c5.564 0 8.524-4.314 10.175-9.075 0 0 18.506 4.136 18.476 4.463-.863 8.464-6.114 13.626-7.438 14.995-4.998 5.192-11.99 8.226-19.086 9.119-1.457.178-2.93.282-4.403.282-.476 0-.937 0-1.413-.029-5.831-.238-11.633-1.904-16.557-5.073-6.828-4.418-11.127-11.469-12.882-21.168-1.042-5.787-.64-11.246 1.22-16.349 1.844-5.102 4.834-9.401 8.94-12.882s8.881-5.713 14.34-6.694c1.934-.342 3.734-.536 5.46-.536 3.867 0 7.482.893 11.9 2.827l-.416-2.276 17.166-3.095m3.571-3.094l-3.972.714-17.167 3.095-2.38.43.074.447c-3.064-.996-5.876-1.458-8.762-1.458-1.844 0-3.778.194-5.89.566-5.847 1.056-11.053 3.48-15.471 7.23-4.418 3.733-7.661 8.419-9.655 13.893-1.993 5.49-2.439 11.41-1.324 17.598 1.86 10.339 6.561 18 13.939 22.775 5.102 3.303 11.246 5.192 17.762 5.46.506.014 1.011.029 1.517.029 1.562 0 3.139-.104 4.701-.297 8.092-1.027 15.381-4.523 20.514-9.833l1.904-.476c4.671-4.82 5.355-18.431 5.355-18.431s-.58-.134-3.853-.952a359.985 359.985 0 00-6.396-1.532c-4.582-1.072-9.223-2.098-9.268-2.113l-2.098-.476-.699 2.038c-2.588 7.453-6.575 7.453-7.899 7.453h-.134c-4.567-.075-7.393-4.418-8.166-8.717-.476-2.678-.119-4.969 1.115-6.992 1.175-1.934 2.856-3.064 5.147-3.48a10.22 10.22 0 011.919-.194c2.113 0 3.972.758 6.694 4.492l1.071 1.473 1.711-.61 9.402-3.392 1.115-.401.372-1.13 7.572-23.4 1.235-3.838.015.03z" fill="#000A00"/><path d="M192.537 130.029c-4.105-27.193-5.281-30.064-10.963-43.869l-1.175-2.87 25.393-9.417-.313 7.557c2.589-1.904 5.846-2.946 9.298-2.946 3.451 0 6.59 1.042 8.91 2.886.759-1.145 1.532-2.112 1.637-2.216 3.347-3.198 7.229-4.82 11.558-4.82 3.957 0 8.092 1.443 11.663 4.046 7.289 5.326 8.181 14.906 8.955 23.355l.045.402c1.085 11.767 3.376 16.795 3.406 16.854l1.354 2.842-21.942 2.469-.268-2.202c0-.074-1.071-8.538-1.383-12.183-.491-5.727-1.309-8.985-2.44-9.699-.431-.268-.878-.416-1.279-.416-.432 0-.833.178-1.205.55-.759.759-.952 2.544-.744 3.912l3.094 20.335-18.728 2.485s-2.633-15.679-2.708-16.2a123.803 123.803 0 01-.416-2.812c-.61-4.358-.878-5.429-2.187-6.009-.045-.015-.164-.06-.372-.06-.595 0-1.279.327-1.696.818-.401.476-.55 1.071-.416 1.785.565 3.318.922 5.371 1.324 7.661l.446 2.559c.669 3.838 1.339 7.691 1.993 11.529l.372 2.201-20.871 3.764-.342-2.291z" fill="url(#paint3_linear_1151_3407)"/><path d="M236.882 75.36c3.734 0 7.661 1.37 11.053 3.838 6.917 5.058 7.78 14.385 8.539 22.612l.044.401c1.116 12.079 3.466 17.152 3.496 17.197l.729 1.532-19.473 2.202-.148-1.19c-.045-.343-1.071-8.569-1.369-12.139-.238-2.737-.773-9.164-2.93-10.488-.595-.371-1.235-.565-1.815-.565-.714 0-1.369.283-1.934.848-1.056 1.056-1.294 3.183-1.041 4.805.014.104 2.93 19.279 2.93 19.279l-16.676 2.216-.193-1.145s-2.261-13.522-2.35-14.043a119.154 119.154 0 01-.417-2.841c-.61-4.388-.907-5.95-2.797-6.768-.223-.105-.49-.149-.788-.149-.907 0-1.874.461-2.499 1.19-.417.491-.878 1.354-.655 2.633.566 3.317.923 5.37 1.339 7.661l.446 2.559c.67 3.837 1.339 7.675 1.994 11.528l.208 1.175-18.803 3.392-.178-1.235c-4.121-27.326-5.311-30.212-11.023-44.106l-.774-1.875 22.924-8.509-.357 8.628c.446-.565.848-1.011 1.086-1.22 2.499-2.112 5.816-3.272 9.356-3.272 3.541 0 7.007 1.28 9.149 3.436.893-1.532 2.112-3.035 2.127-3.064 3.139-3.005 6.784-4.522 10.83-4.522m-30.005-3.02l-2.93 1.086-22.924 8.509-2.023.743.818 1.994.774 1.874c5.638 13.701 6.813 16.557 10.889 43.631l.178 1.234.313 2.113 2.112-.387 18.803-3.392 2.038-.371-.342-2.038-.208-1.176c-.655-3.852-1.324-7.69-1.994-11.528l-.446-2.559c-.401-2.291-.773-4.344-1.324-7.646-.074-.402 0-.699.194-.937.238-.283.654-.461.907-.461.684.327.937.952 1.502 5.117.119.877.253 1.829.417 2.871.089.535 2.261 13.507 2.35 14.072l.194 1.146.327 1.978 1.993-.268 16.676-2.216 2.098-.283-.313-2.097s-2.915-19.16-2.93-19.279c-.209-1.339.074-2.633.446-3.02.253-.253.387-.253.461-.253.193 0 .461.089.729.253.387.283 1.354 1.726 1.964 8.896.312 3.719 1.368 12.138 1.383 12.228l.149 1.175.253 2.038 2.053-.238 19.472-2.202 2.901-.327-1.25-2.633-.729-1.532s-2.246-4.999-3.302-16.498l-.045-.401c-.803-8.673-1.71-18.49-9.372-24.099-3.748-2.737-8.107-4.24-12.287-4.24-4.597 0-8.717 1.711-12.272 5.103-.134.134-.625.729-1.176 1.502-2.395-1.577-5.429-2.454-8.657-2.454-2.931 0-5.742.714-8.167 2.038l.163-4.002.134-3.124v.06z" fill="#000A00"/><path d="M236.882 76.565c3.823 0 7.483 1.518 10.339 3.615 6.575 4.805 7.319 13.983 8.077 22.15 1.161 12.511 3.6 17.613 3.6 17.613l-16.601 1.874s-1.056-8.509-1.369-12.094c-.461-5.474-1.22-10.011-3.496-11.41-.758-.475-1.606-.743-2.454-.743-.967 0-1.934.357-2.782 1.205-1.383 1.383-1.681 3.882-1.383 5.846l2.752 18.074-14.296 1.904-2.35-14.043c-.952-6.009-.789-9.148-3.913-10.517a3.271 3.271 0 00-1.279-.253c-2.231 0-4.894 1.979-4.344 5.237.759 4.477 1.161 6.649 1.785 10.234.67 3.838 1.339 7.676 1.994 11.514l-16.408 2.945c-4.21-27.936-5.445-30.614-11.395-45.118l20.053-7.438s-.105 2.47-.209 5.177c-.029.774-.059 1.577-.089 2.336a849.559 849.559 0 00-.164 3.986c-.059.223 0 .342 0 0 .833-2.573 2.633-4.388 3.258-4.924 2.41-2.023 5.549-2.99 8.569-2.99 3.912 0 7.661 1.592 9.431 4.537 0 0 0 .03.015.03 0 0 0-.015-.015-.03-.149-.475 2.365-4.194 2.678-4.492 3.153-3.02 6.634-4.195 9.996-4.195M205.97 73.62l-3.406 1.264-20.053 7.438-2.35.863.952 2.32.297.73c5.668 13.789 6.858 16.66 10.949 43.838l.372 2.455 2.439-.446 16.408-2.946 2.351-.416-.402-2.365c-.654-3.853-1.324-7.691-1.993-11.529l-.432-2.44c-.416-2.335-.773-4.403-1.353-7.765-.119-.669 0-1.205.386-1.651.447-.536 1.116-.759 1.562-.759.179 0 .283.03.298.045 1.235.535 1.502 1.591 2.083 5.831.119.878.252 1.815.416 2.856.089.536 2.261 13.507 2.35 14.058l.387 2.306 2.321-.313 14.295-1.904 2.44-.327-.372-2.44c-2.201-14.429-2.648-17.404-2.752-18.074-.238-1.517.075-3.139.699-3.778.447-.447.833-.506 1.086-.506.357 0 .789.134 1.19.387 1.086.669 1.89 3.897 2.366 9.565.312 3.6 1.338 11.841 1.383 12.198l.298 2.365 2.365-.268 16.601-1.874 3.377-.387-1.473-3.064s-2.291-4.998-3.377-16.78l-.044-.402c-.789-8.479-1.666-18.103-9.015-23.474-3.6-2.633-7.78-4.076-11.767-4.076-4.299 0-8.33 1.681-11.662 4.865-.387.372-1.101 1.428-1.547 2.112-2.321-1.785-5.475-2.826-8.896-2.826-3.362 0-6.545.981-9.119 2.767l.164-3.838.148-3.63.03.015z" fill="#000A00"/><path d="M249.259 137.854c4.834-33.381 5.266-82.814-3.303-112.729l-.833-2.93 40.819.788-12.882 58.268c5.266-4.775 11.365-9.118 18.059-9.46.268 0 .551-.015.818-.015 3.065 0 6.04.877 8.822 2.603 11.023 6.828 12.123 22.313 6.218 31.953-.432.699-.878 1.473-1.354 2.276-3.436 5.891-8.137 13.939-19.026 20.082-6.798 3.838-11.514 5.385-18.357 7.037l-2.544.624c-2.796.685-10.74 3.035-13.507 3.972l-3.481 1.19.536-3.644.015-.015zm22.284-35.94c-.149 2.559-.997 8.583-1.533 12.302a41.398 41.398 0 006.055-2.677c2.975-1.622 5.846-6.814 4.805-10.116-.551-1.74-2.708-2.068-3.615-2.127l-.074-1.042v1.042c-1.934 0-5.103 1.889-5.638 2.618z" fill="url(#paint4_linear_1151_3407)"/><path d="M246.507 23.266l38.141.729s-10.294 46.576-13.343 60.32c5.489-5.31 12.376-11.111 19.859-11.483.253 0 .506-.015.758-.015 2.872 0 5.653.818 8.271 2.454 10.503 6.501 11.529 21.302 5.876 30.525-3.51 5.728-7.839 15.144-19.993 22.002-6.798 3.838-11.424 5.31-18.089 6.932-.818.193-1.666.402-2.543.625-2.812.699-10.815 3.049-13.582 3.986l-1.874.64.282-1.949c4.865-33.485 5.266-83.11-3.332-113.175l-.446-1.576m22.224 92.467c3.853-1.249 6.278-2.454 7.825-3.302 3.332-1.815 6.501-7.527 5.311-11.35-.744-2.35-3.422-2.782-4.538-2.856h-.148c-2.47 0-6.62 2.528-6.68 3.451-.133 2.782-1.249 10.443-1.785 14.043m-24.976-94.61l.773 2.707.447 1.577c8.524 29.766 8.107 79.035 3.272 112.297l-.282 1.949-.491 3.377 3.228-1.101 1.874-.64c2.737-.937 10.636-3.258 13.418-3.942.878-.223 1.726-.416 2.529-.625 6.932-1.681 11.722-3.243 18.625-7.14 11.142-6.278 15.917-14.474 19.412-20.469.462-.804.908-1.562 1.339-2.261 6.159-10.056 4.969-26.226-6.56-33.382-2.96-1.83-6.114-2.767-9.372-2.767-.297 0-.58 0-.877.015-5.995.298-11.47 3.615-16.319 7.632l11.93-53.94.551-2.484-2.544-.045-38.142-.729-2.811-.06v.03zm28.829 81.236c.848-.744 3.317-2.038 4.627-2.038h.029c.566.045 2.306.268 2.663 1.399.878 2.766-1.77 7.512-4.314 8.895a40.139 40.139 0 01-4.269 1.994c.52-3.645 1.101-7.929 1.264-10.25z" fill="#000A00"/><path d="M283.146 25.17l-13.909 62.865c5.801-5.772 13.582-13.582 21.986-14.013.238 0 .476-.015.714-.015 2.5 0 5.058.67 7.647 2.276 4.983 3.094 7.928 8.509 8.598 14.25 1.577 13.567-9.06 27.64-18.833 33.828-5.177 3.288-10.145 5.876-16.051 7.646-2.678.804-5.4 1.473-8.122 2.143-2.841.699-10.919 3.079-13.686 4.016 4.671-32.176 6.174-82.784-2.678-113.68m18.432 92.973c6.813-1.979 17.88-6.144 16.11-15.382-.818-4.269-4.998-6.307-8.702-4.85-1.488.581-5.281 3.259-5.341 4.419-.163 3.377-2.067 15.813-2.067 15.813zM244.9 22.031l.893 3.139c6.486 22.626 9.699 68.592 3.302 112.669l-.565 3.912 3.734-1.279c2.677-.923 10.755-3.288 13.492-3.957.878-.223 1.726-.417 2.544-.625 6.783-1.636 11.677-2.826 18.446-7.081 9.431-5.92 16.824-16.571 20.38-22.388 5.935-9.699 4.819-25.304-6.278-32.176-2.826-1.74-5.816-2.633-8.911-2.633-.282 0-.55 0-.833.015-6.619.327-12.674 4.581-17.776 9.148 3.704-16.72 12.079-54.594 12.183-55.07l.64-2.886-2.946-.06-35.032-.669-3.273-.06zm26.806 79.972c.67-.937 3.898-2.544 5.475-2.544 1.145.075 3.019.432 3.525 2.023 1.012 3.228-1.8 8.331-4.73 9.922-1.235.67-3.065 1.592-5.772 2.574.119-.833.253-1.77.387-2.722.639-4.493.996-7.602 1.1-9.238l.015-.015z" fill="#000A00"/><path d="M315.248 30.108l3.332 32.935-39.272 12.51-18.833-28.442-.61-10.056 55.383-6.947z" fill="#000A00"/><path d="M321.377 168.959c-.209-.059-20.574-5.861-33.932-7.349-9.134-1.011-19.041-1.309-19.145-1.309l-3.303-.089 2.589-2.053c.431-.342 43.511-34.973 44.91-62.493.61-11.96-.878-24.738-2.559-34.2-2.023.625-25.705 8.42-25.943 8.51l-.893.297-19.561-30.42 2.008-.165c4.254-.342 16.259-1.933 27.862-3.466 6.233-.818 12.273-1.621 16.765-2.171 8.985-1.116 18.282-2.395 29.231-4.032l1.16-.178c6.397-.952 13.641-2.038 20.663-2.038 7.408 0 13.507 1.205 18.669 3.674 6.649 3.183 11.901 8.806 14.415 15.396 1.368 3.615 1.874 7.379 1.472 11.187-.342 3.288-1.353 6.575-2.99 9.773-2.484 4.82-6.262 8.911-11.915 12.898-7.26 5.117-13.597 9.044-20.901 11.603-.625.223-1.919.565-3.228.892 4.641 2.232 12.779 7.528 19.398 19.012 1.607 2.781 2.291 6.01 2.886 8.866.982 4.611 1.666 7.214 4.344 7.214h.178l31.091.581-1.369 1.874c-.059.074-5.98 8.196-9.624 15.917-2.262 4.79-7.156 17.613-7.215 17.747l-.655 1.711-1.309-1.28c-.089-.089-8.613-8.211-20.573-10.428-9.565-1.755-13.805-2.305-23.519-2.499l-2.573-.044 2.306-2.663c2.023-2.321 3.138-3.615 4.462-6.189 7.289-14.28.759-33.47-9.699-39.167a25.376 25.376 0 00-5.563-2.217c-.461-.119-3.005-.684-4.508-.997-.342 2.366-1.19 7.706-2.543 12.898-1.295 5.013-6.546 17.702-8.97 23.459l24.232-11.291-2.544 3.674c-.089.134-9.014 13.002-13.209 19.622-3.139 4.953-8.866 19.16-8.926 19.293l-.401 1.012-1.042-.298-.029-.074zm11.99-106.615c.148 1.413.401 4.404.877 10.265.238 2.93.491 6.143.655 7.854.386-.074.758-.164 1.145-.238 2.737-.565 5.564-1.145 8.063-2.261l1.041-.461c1.919-.833 3.734-1.637 5.311-2.871 2.633-2.068 4.373-5.118 5.013-8.807.431-2.499.372-4.537-.193-6.203-.372-1.071-.923-1.83-1.711-2.29-.67-.403-1.547-.61-2.589-.61-2.633 0-5.786 1.234-8.077 2.127-2.053.803-4.314 1.606-6.129 2.246-1.25.446-2.633.937-3.406 1.25z" fill="url(#paint5_linear_1151_3407)"/><path d="M361.229 28.978c6.352 0 12.585.892 18.133 3.555 6.233 2.99 11.336 8.256 13.805 14.742 1.339 3.526 1.77 7.11 1.398 10.636-.327 3.198-1.324 6.337-2.871 9.342-2.692 5.222-6.798 9.119-11.543 12.466-6.471 4.567-13.076 8.821-20.603 11.454-1.428.506-6.828 1.74-6.828 1.74s12.853 3.393 22.343 19.905c3.898 6.768 2.083 16.69 8.286 16.69h.223l28.696.536s-5.995 8.196-9.744 16.125c-2.306 4.894-7.245 17.836-7.245 17.836.149-.372-3.466-2.826-3.748-3.034-3.957-2.857-8.465-5.088-13.136-6.59-7.899-2.544-16.69-3.288-24.931-3.556-1.027-.029-2.053-.059-3.095-.074 2.44-2.812 3.734-4.18 5.252-7.155 6.366-12.496 2.781-33.709-10.19-40.79a27.748 27.748 0 00-5.832-2.335c-.535-.149-5.429-1.235-5.861-1.22 0 0-.892 7.081-2.692 13.983-1.666 6.427-10.145 26.196-10.145 26.196l23.042-10.74s-8.97 12.942-13.239 19.651c-3.228 5.102-9.03 19.487-9.03 19.487s-20.514-5.876-34.14-7.393c-9.297-1.041-19.234-1.324-19.234-1.324s43.928-34.973 45.356-63.386c.937-18.475-3.02-38.275-4.909-45.445-.045-.179-.327-.253-.625-.253-.446 0-1.666.372-1.591.625 1.829 5.995 2.305 9.847 2.305 9.847-2.038.625-25.259 8.316-25.259 8.316l-17.97-27.937c6.605-.535 31.909-4.06 44.672-5.652 9.833-1.22 19.458-2.574 29.261-4.032 6.783-1.011 14.296-2.201 21.644-2.201M333.857 81.92c5.936-1.34 12.288-2.47 17.197-6.323 4.909-3.852 7.676-10.933 5.191-16.854-2.157-5.132-9.089-4.448-12.971-2.945-3.035 1.16-6.099 2.246-9.149 3.377-.193.074-2.41.877-2.41.877m29.514-33.485c-7.111 0-14.415 1.086-20.841 2.053l-1.16.178c-10.964 1.637-20.246 2.916-29.202 4.032-4.507.565-10.472 1.353-16.794 2.186-11.574 1.532-23.549 3.11-27.774 3.451l-4.016.328 2.172 3.391 17.97 27.937 1.011 1.577 1.771-.58c.208-.075 19.16-6.307 24.604-8.078 1.562 9.223 2.871 21.273 2.306 32.563-1.369 26.985-44.018 61.274-44.449 61.616l-5.162 4.12 6.605.194c.104 0 9.952.297 19.041 1.309 13.269 1.473 33.53 7.244 33.738 7.304l2.098.595.818-2.023c.059-.149 5.757-14.251 8.836-19.101 4.18-6.59 13.091-19.442 13.18-19.576l5.088-7.334-8.093 3.779-17.36 8.092c2.663-6.411 6.694-16.393 7.825-20.752 1.13-4.358 1.934-8.91 2.38-11.752 1.369.298 2.886.64 3.183.714 1.89.521 3.675 1.22 5.311 2.113 11.737 6.396 14.92 26.33 9.193 37.561-1.249 2.455-2.261 3.615-4.299 5.95l-.625.729-3.376 3.898 5.147.104c9.624.193 13.834.729 23.325 2.484 11.588 2.142 19.874 10.026 19.963 10.101l2.633 2.544 1.309-3.407c.045-.134 4.924-12.912 7.17-17.657 3.6-7.617 9.446-15.65 9.506-15.724l2.752-3.749-4.656-.089-28.696-.536h-.282c-1.503 0-2.083-1.16-3.169-6.262-.624-2.931-1.324-6.263-3.019-9.208-5.594-9.729-12.318-15.144-17.197-18.03a3.78 3.78 0 00.387-.134c7.438-2.603 13.849-6.575 21.198-11.752 5.816-4.105 9.729-8.33 12.302-13.328 1.711-3.318 2.752-6.754 3.124-10.19a25.29 25.29 0 00-1.547-11.737c-2.618-6.888-8.092-12.734-15.025-16.051-5.31-2.544-11.588-3.794-19.189-3.794l-.015-.06zm-26.568 36.58c.729-.268 1.651-.596 2.514-.908 1.829-.64 4.09-1.443 6.143-2.246 2.232-.878 5.252-2.053 7.661-2.053.833 0 1.488.149 1.979.431.521.313.907.848 1.175 1.637.506 1.472.55 3.317.149 5.608-.595 3.406-2.172 6.188-4.582 8.063-1.458 1.145-3.198 1.904-5.043 2.707-.357.149-.699.312-1.056.461-2.336 1.041-4.909 1.592-7.631 2.142-.164-1.815-.357-4.314-.536-6.5-.401-5.043-.639-7.795-.788-9.357l.015.014z" fill="#000A00"/><path d="M425.314 87.99l-62.36 7.721.372 10.978c.194 9.149 7.899 27.372 26.777 28.324 13.685.684 22.968-1.904 27.936-9.179 1.503-2.186 6.828-5.652 8.227-23.563.535-6.917-.937-14.28-.937-14.28h-.015z" fill="#000A00"/><path d="M391.337 129.3c-8.003 0-15.426-3.064-20.365-8.404-4.894-5.296-7.155-12.436-6.515-20.678 1.413-18.163 15.976-32.4 33.158-32.4h.61c11.484.224 20.35 5.862 24.352 15.501 4.745 11.44 1.547 26.197-7.766 35.896-6.158 6.411-14.712 10.085-23.474 10.085zm5.385-42.842c-.238 0-.491 0-.758.045-4.627.461-7.156 9.074-7.84 13.552-1.071 6.962 1.205 8.256 3.005 8.628.357.074.729.119 1.086.119 5.445 0 8.985-8.807 9.357-13.522.149-1.994.149-5.638-1.622-7.557-.788-.848-1.829-1.265-3.213-1.265h-.015z" fill="url(#paint6_linear_1151_3407)"/><path d="M397.615 68.86h.58c27.639.52 32.697 32.102 15.858 49.626-6.367 6.62-14.727 9.773-22.716 9.773-14.206 0-27.237-9.937-25.839-27.951 1.309-16.855 14.772-31.448 32.117-31.448zm-5.4 40.968c6.188 0 9.997-9.342 10.383-14.489.343-4.507-.58-9.937-5.876-9.937-.267 0-.565 0-.862.045-5.519.55-8.078 9.937-8.777 14.43-.595 3.807-.684 8.88 3.823 9.802.446.09.878.134 1.294.134m5.415-43.035c-17.717 0-32.742 14.652-34.199 33.366-.67 8.524 1.681 15.947 6.783 21.466 5.147 5.548 12.838 8.747 21.124 8.747 9.029 0 17.865-3.794 24.217-10.413 9.744-10.146 12.957-25.021 7.974-37.011-4.165-10.027-13.374-15.903-25.289-16.126h-.625l.015-.03zm-5.4 40.968c-.283 0-.58-.03-.878-.09-.877-.178-3.228-.654-2.186-7.453.758-4.894 3.228-12.302 6.917-12.674.223-.03.446-.03.654-.03 1.086 0 1.86.298 2.455.923 1.101 1.19 1.592 3.66 1.354 6.754-.164 2.097-1.071 5.474-2.738 8.256-1.175 1.963-3.079 4.299-5.578 4.299v.015z" fill="#000A00"/><path d="M397.124 66.435c33.753-.937 37.353 41.043 13.329 58.001-17.851 12.615-44.568 5.861-47.142-17.762-2.201-20.156 13.18-39.673 33.798-40.239h.015zm1.071 2.44c-17.628-.327-31.373 14.385-32.697 31.433-2.187 28.159 30.882 36.579 48.555 18.178 16.839-17.524 11.781-49.105-15.858-49.626v.015z" fill="#000A00"/><path d="M157.669 157.891c-5.043-.074-12.184-2.499-15.427-6.411-5.444-6.575-4.447-15.962-3.585-24.233.104-1.041.223-2.053.313-3.049.134-1.384.253-2.693.342-3.943.089-1.19 1.294-12.54 2.172-20.81.431-4.106.773-7.245.788-7.468l.149-2.752 12.585 2.856c1.8.55 3.615 1.011 5.385 1.443 1.919.476 3.763.937 5.534 1.487l.699.209c.848.252 1.472.431 1.77 1.056.298.64.06 1.205-.312 2.068-.432 1.011-1.235 2.885-1.994 6.426-.401 1.904-.625 3.332-.863 4.849-.282 1.771-.565 3.6-1.16 6.337-1.368 6.204-2.782 12.615-3.005 13.909-.863 5.103 1.22 6.382 3.377 6.977a6.299 6.299 0 001.577.223h.357c1.859-.089 2.692-.833 3.555-3.168.387-1.057.521-2.336.655-3.585.506-4.909 1.383-21.288 1.725-28.443l.223-4.537 2.633.61c4.091.952 6.933 1.696 9.432 2.335 3.153.818 5.846 1.503 9.758 2.321l2.485.521-.819 2.409c-1.993 5.936-4.046 21.005-4.254 27.327-.268 7.423 3.987 14.757 7.408 20.633l.104.193.327 2.886-2.737.298c-3.183-.045-7.869-.298-12.406-.536h-.208c-4.344-.238-9.283-.505-12.332-.55h-1.83l-.536-1.131c-2.618 1.458-5.266 2.44-7.884 2.916a20.218 20.218 0 01-3.674.327h-.327z" fill="url(#paint7_linear_1151_3407)"/><path d="M143.388 90.49l11.38 2.588c1.725.535 3.57.996 5.355 1.443 1.815.46 3.689.922 5.489 1.472 3.496 1.071 1.354-.342-.55 8.554-.893 4.18-.922 6.144-2.023 11.172-1.428 6.5-2.782 12.644-3.005 13.953-1.012 6.025 1.874 7.542 4.135 8.152a7.65 7.65 0 001.83.268h.431c2.47-.119 3.541-1.324 4.478-3.838.431-1.175.58-2.529.714-3.838.491-4.79 1.354-20.514 1.74-28.487l.164-3.288 1.413.327c4.047.953 6.903 1.681 9.417 2.336 3.153.818 5.861 1.517 9.803 2.335l1.339.283-.432 1.294c-2.008 5.965-4.076 20.96-4.314 27.625-.267 7.72 4.061 15.188 7.542 21.198l.179 1.621-1.696.179c-3.079-.045-7.854-.298-12.451-.551-4.582-.238-9.327-.491-12.362-.55h-1.19l-.327-.685c-.164-.342-.253-.654-.268-.966-2.871 1.77-5.772 2.915-8.673 3.451a19.43 19.43 0 01-3.48.312h-.298c-5.073-.074-11.796-2.618-14.638-6.039-5.831-7.052-3.838-17.926-3.034-26.524.119-1.369.252-2.692.342-3.957.134-1.8 2.945-27.981 2.96-28.294l.089-1.547m-2.008-2.573l-.134 2.47-.089 1.546c-.015.209-.357 3.451-.759 7.2-1.115 10.443-2.112 19.919-2.186 21.049-.09 1.205-.209 2.485-.328 3.794v.119c-.104.981-.208 1.993-.312 3.034-.848 8.063-1.904 18.089 3.823 25.007 3.436 4.15 10.934 6.708 16.215 6.798h.327a22.24 22.24 0 003.853-.342c2.41-.447 4.834-1.295 7.229-2.514l.342.714h1.295l1.19.029c3.005.045 7.72.298 12.272.536 4.627.253 9.417.506 12.54.55h.268l1.696-.178 2.083-.223-.238-2.083-.179-1.621-.044-.432-.224-.372c-3.347-5.772-7.512-12.957-7.274-20.082.223-6.263 2.232-21.183 4.21-27.044l.431-1.294.744-2.232-2.306-.476-1.338-.282c-3.883-.804-6.575-1.503-9.685-2.306-2.543-.655-5.414-1.399-9.475-2.35l-1.414-.328-2.439-.565-.119 2.499-.164 3.288c-.446 9.089-1.264 23.905-1.725 28.383-.119 1.175-.253 2.395-.595 3.332-.804 2.187-1.384 2.425-2.619 2.484h-.297c-.432 0-.878-.074-1.309-.193-1.369-.372-3.437-.938-2.618-5.802.208-1.264 1.621-7.676 2.99-13.864.61-2.767.892-4.612 1.175-6.397.238-1.502.461-2.915.848-4.79.729-3.436 1.487-5.191 1.934-6.233.386-.922.803-1.86.297-2.93-.506-1.056-1.473-1.339-2.425-1.622-.193-.06-.416-.119-.684-.208-1.844-.565-3.749-1.041-5.578-1.502-1.771-.447-3.57-.893-5.266-1.414l-.075-.03h-.074l-11.38-2.603-2.41-.55v.03z" fill="#000A00"/><path d="M144.518 92.096s5.341 1.07 9.075 1.978c5.028 1.19 7.571 1.86 11.662 3.08.357.119-5.846 28.963-6.426 32.325-.744 4.403.193 8.211 4.998 9.52a7.87 7.87 0 002.127.298h.506c3.079-.149 4.507-1.785 5.549-4.627.491-1.324.639-2.737.773-4.12.536-5.222 1.488-23.296 1.83-30.406 9.149 2.142 12.154 3.198 19.249 4.671-2.082 6.158-4.15 21.48-4.373 27.966-.268 7.825 3.778 15.069 7.705 21.853h-.446c-6.114-.09-18.074-.997-24.188-1.101h-.446c-.833-1.711 3.154-3.972 4.477-5.415.491-.536.551-.863-.238-1.339-4.09 4.403-9.684 7.587-15.128 8.584a18.778 18.778 0 01-3.541.297c-4.388-.074-10.948-2.246-13.73-5.608-6.397-7.75-3.094-20.439-2.425-29.633.134-1.829 2.961-28.308 2.961-28.308m-3.392-2.187l-.134 2.5c-.015.311-2.826 26.478-2.96 28.263-.09 1.25-.209 2.574-.342 3.927-.819 8.822-1.711 19.517 4.447 26.955 3.065 3.704 10.116 6.397 15.546 6.471a21.209 21.209 0 004.016-.327c2.603-.476 5.207-1.428 7.78-2.856l.506 1.056h1.502l.432.015c3.02.044 7.75.297 12.317.55 4.626.253 9.401.506 12.496.551h.461l.029 3.153 2.083-6.783c-3.406-5.876-7.646-13.18-7.393-20.544.223-6.441 2.306-21.525 4.254-27.282l.878-2.588-2.663-.551c-3.912-.818-22.016-5.325-22.016-5.325l-.134 2.901-.089 1.859c-.387 7.974-1.235 23.668-1.726 28.413-.134 1.279-.253 2.499-.639 3.54-.759 2.053-1.414 2.961-3.392 3.05h-.357a5.44 5.44 0 01-1.532-.223c-2.083-.566-4.091-1.815-3.258-6.784.223-1.294 1.577-7.437 3.005-13.938.937-4.091 1.22-5.37 2.425-10.354.743-3.094 1.353-4.76 1.591-5.95.67-2.157 1.071-4.106 1.071-4.106s-.505-.163-1.175-.372c-1.83-.565-26.806-7.289-26.806-7.289l-.223 2.053v.015z" fill="#000A00"/><path d="M447.598 136.634l2.067-2.321-3.094.224c-.833.059-1.666.104-2.484.104h-.06c-7.244 7.824-14.37 14.652-18.46 18.565-2.366 2.261-3.972 3.793-4.404 4.358.863-.134 3.645-.565 7.23-1.115 5.013-4.82 12.287-11.99 19.219-19.8l-.014-.015zm-88.407-3.555c-.327 3.778-1.309 7.527-3.065 10.993-1.398 2.722-2.618 4.135-4.626 6.441l-.55.625c1.636.03 3.109.074 4.477.134.223-.387.461-.804.684-1.265 2.693-5.281 3.556-11.216 3.065-16.943l.015.015zm-84.673-92.022l4.701 5.34 1.785-.237c3.763-.491 7.809-1.027 11.811-1.547 6.233-.819 12.258-1.622 16.75-2.172 9.06-1.13 18.357-2.41 29.261-4.032l1.16-.178c6.367-.952 13.567-2.023 20.484-2.023 6.917 0 13.135 1.16 18.119 3.54 6.367 3.05 11.38 8.405 13.775 14.698a22.897 22.897 0 011.309 5.162c.015-.164.059-.343.074-.506.387-3.615-.089-7.185-1.398-10.607-2.395-6.292-7.408-11.648-13.775-14.697-4.969-2.38-10.904-3.54-18.119-3.54s-14.102 1.07-20.484 2.023l-1.16.178c-10.904 1.622-20.201 2.916-29.261 4.031-4.492.566-10.517 1.354-16.75 2.172-4.001.536-18.297 2.395-18.297 2.395h.015zm117.057 32.206a30.006 30.006 0 01-.863 1.547l-1.442 2.425 2.766-.535c1.8-.342 3.66-.52 5.504-.52h.551c7.884.148 14.34 2.974 18.669 8.136l1.026 1.22.952-1.264a31.307 31.307 0 014.612-4.895c4.076-3.45 8.896-5.697 14.31-6.679 1.979-.357 3.764-.535 5.46-.535 3.243 0 6.277.61 9.863 1.993l2.097.803-.402-2.26 10.934-1.98-.654-1.472a53.831 53.831 0 00-1.964-4.002l-8.316 1.503.402 2.26-2.097-.802c-3.586-1.384-6.62-1.994-9.863-1.994-1.696 0-3.481.179-5.46.536-5.414.982-10.234 3.228-14.31 6.679a30.667 30.667 0 00-4.612 4.894l-.952 1.265-1.026-1.22c-4.344-5.177-10.8-7.989-18.669-8.137h-.551c-1.606 0-3.213.148-4.79.416a26.73 26.73 0 01-1.175 2.604v.014zm-57.494 13.76l.133 1.413 2.544-.535c2.797-.58 5.683-1.175 8.316-2.35l1.026-.462c1.994-.862 3.868-1.695 5.579-3.034 2.885-2.261 4.775-5.579 5.489-9.595.401-2.291.387-4.225 0-5.906-.714 3.987-2.604 7.29-5.475 9.55-1.71 1.34-3.585 2.157-5.578 3.035l-1.026.461c-2.633 1.175-5.519 1.77-8.316 2.35l-2.544.536s-.282 2.827-.134 4.537h-.014zm-61.78 5.087c5.49-5.31 12.035-10.784 19.041-11.126.224 0 .462-.015.7-.015 2.633 0 5.191.759 7.616 2.261 5.087 3.154 7.795 8.405 8.494 13.939.937-7.483-1.577-15.605-8.494-19.89-2.425-1.502-4.983-2.26-7.616-2.26-.238 0-.476 0-.7.014-7.006.357-13.566 5.817-19.041 11.127l-1.353 1.31-1.681 7.571 3.02-2.915.014-.015zm41.414 9.789c.149-2.856.387-7.78.313-10.606-.03.878-.268 3.778-.313 4.656-1.383 27.342-42.693 61.244-45.267 63.326.655.015 3.169.104 6.561.298 12.361-11.127 37.635-36.386 38.706-57.674zm196.242-51.634l-.967-.119c-2.782 13.775-9.878 30.213-22.611 39.495l-.729.536a201.554 201.554 0 01-1.22 4.016l-1.19 3.704 3.139-2.29c14.162-10.339 21.376-29.544 23.399-44.062l.179-1.265v-.015zm-6.605-15.025l46.561 16.795c2.187-2.44 3.63-4.076 4.017-4.522L503.352 29.29l-3.585 13.448 1.532.193 2.053-7.69zm-112.238 82.13a7.827 7.827 0 001.547.164c7.289 0 11.246-10.369 11.648-15.65.104-1.398.104-3.05-.164-4.64-.877 5.518-4.76 14.339-11.484 14.339a7.937 7.937 0 01-1.547-.163c-2.633-.536-4.254-2.217-4.864-4.998-.923 6.411.699 10.1 4.864 10.948zm-121.565 6.025c3.987-1.28 6.501-2.544 8.048-3.392 3.823-2.083 7.304-8.42 5.906-12.838-.06-.193-.164-.357-.238-.535-1.012 3.138-3.273 6.114-5.668 7.423-1.547.833-4.061 2.097-8.048 3.391l-1.026.328c-.238 1.666-.461 3.183-.61 4.224l-.298 2.023 1.934-.624zm52.988 19.517l-1.265 3.02 16.974-7.914c2.856-4.21 5.414-7.914 5.995-8.747l-19.874 9.267c-.7 1.696-1.339 3.214-1.815 4.374h-.015zm-133.124-3.927c-.104 5.578 2.024 10.903 4.552 15.679 1.146.029 2.202.044 3.109.044h.343c-3.214-5.355-7.111-11.856-7.87-18.833a72.613 72.613 0 00-.134 3.11zm282.611 1.249l-1.324 1.904 12.228.283c.699-3.868 1.428-5.489 1.651-5.891l-10.473-.223c-.729 1.726-1.458 3.005-2.097 3.927h.015zM203.352 94.55l2.425-3.079c.491-.625.803-.952.922-1.041 2.261-1.92 5.296-2.975 8.539-2.975 3.243 0 6.307 1.115 8.241 3.064l1.16 1.175.833-1.428c.848-1.443 1.994-2.856 1.994-2.87 2.811-2.678 6.158-4.092 9.862-4.092 3.466 0 7.126 1.28 10.309 3.6 2.351 1.726 4.106 4.106 5.356 7.304l2.439-.46c0-2.01-.015-3.973-.044-5.936l-2.395.446c-1.25-3.183-3.005-5.578-5.356-7.304-3.183-2.32-6.843-3.6-10.309-3.6-3.704 0-7.051 1.398-9.862 4.09 0 0-1.161 1.429-1.994 2.872l-.833 1.428-1.16-1.175c-1.934-1.949-4.939-3.065-8.241-3.065-3.303 0-6.263 1.056-8.539 2.975-.104.09-.431.417-.922 1.042l-2.157 2.752-.253 6.277h-.015zm-17.672-4.64l17.672-6.516.253-6.04-20.038 7.378.268.67c.669 1.636 1.279 3.109 1.845 4.492v.015zm-41.4 6.485l-.148 1.339 15.574 3.942c1.399.327 2.931.833 4.329 1.205.551-2.826.938-4.864.967-5.593-1.666-.491-4.998-1.458-6.709-1.86l-13.552-3.198c-.178 1.651-.252 2.008-.446 4.165h-.015zM281.985 31.21l1.31-5.921-34.884-.67c.535 1.89 1.056 3.883 1.532 5.98l32.042.61zM98.835 72.802c1.874 3.69 4.715 10.294 6.515 16.795 2.633 9.446 4.002 19.666 4.478 23.608l.164 1.383 1.368-.312c2.975-.67 11.38-3.972 12.674-4.79 6.427-4.032 9.937-12.779 9-22.106-.729 6.947-3.972 13.002-9 16.156-1.309.818-9.699 4.12-12.674 4.79l-1.368.312-.164-1.384c-.476-3.956-1.845-14.176-4.478-23.622-1.279-4.597-3.064-9.223-4.671-12.868a12.79 12.79 0 01-.922.194l-1.71.282.788 1.547v.015zm-7.617 54.193c-.178-.952-.49-2.544-.892-4.493l-18.64 3.704c.402 1.131 1.429 3.392 2.098 5.534l17.672-3.511-.238-1.234zm74.26 13.254c-.163 0-.342 0-.506-.015a8.573 8.573 0 01-2.112-.431c-2.603-.878-4.165-2.514-4.671-4.865-.104.417-.059 1.235-.059 1.458 0 5.475 1.071 7.319 4.358 8.405a9.56 9.56 0 002.113.432c.163 0 .342.014.505.014 2.99.045 5.534-.877 6.813-3.793.566-1.309.848-2.216 1.057-3.525.074-.476.104-.923.178-1.934.045-.64 0-2.336 0-2.336s-.372 1.22-.654 1.875c-1.934 4.522-4.032 4.775-7.022 4.73v-.015zm23.147-36.55a470.08 470.08 0 01-4.106-.981c-2.484-.595-5.295-1.28-9.238-2.143l-.059 1.86c-.06 1.621-.223 4.091-.223 4.091 3.942.863 7.036 1.532 9.52 2.142 1.488.357 2.767.669 4.106.982l3.466.818 1.696-5.564-5.147-1.205h-.015zm302.023-65.022c-.283-3.317-.64-5.31-.729-5.742l-46.739 8.643.684 5.816 46.769-8.717h.015zm44.687 104.28a20.6 20.6 0 00-3.109-1.042c-2.44 1.086-5.251 1.815-8.494 2.038l.089 1.592.06 1.145 1.145.06c1.845.104 6.545.521 10.324 2.157 2.573 1.101 4.73 2.767 6.248 4.12.922-1.71 1.695-3.019 2.246-3.704-.387-.446-3.808-4.343-8.494-6.366h-.015zM151.807 61.08c-3.852-7.854-9.743-15.887-18.669-20.127-5.771-2.752-12.585-4.076-20.841-4.076-2.499 0-5.147.12-8.092.357-6.456.52-13.016.789-19.502.789-4.805 0-9.684-.15-14.504-.432-14.43-.863-28.978-2.782-43.066-4.626-6.857-.908-14.622-1.92-22.03-2.767h-.164l-.045.208 4.835 6.278c6.114.729 11.811 1.487 17.405 2.216 14.072 1.86 28.635 3.764 43.065 4.627 4.82.282 9.699.431 14.504.431 6.47 0 13.031-.268 19.502-.788 2.945-.238 5.593-.357 8.092-.357 8.256 0 15.07 1.338 20.841 4.076 6.992 3.332 12.109 8.97 15.858 15.04l2.811-.864v.015zm4.24 17.806c.253.848.476 1.666.684 2.425.982 3.764 1.577 7.408 1.8 10.904.283-4.418-.104-9.104-1.145-14.013l-1.339.67v.014z" fill="#FFF7D7"/><path d="M542.64 51.976a3.466 3.466 0 10-5.75-3.872 3.466 3.466 0 005.75 3.872zm-216.86 4.939a6.991 6.991 0 100-13.983 6.991 6.991 0 000 13.983zM85.595 60.767a5.117 5.117 0 100-10.234 5.117 5.117 0 000 10.234zm-41.637-4.209a8.316 8.316 0 100-16.631 8.316 8.316 0 000 16.63z" fill="#FFF7D7"/><path d="M88.422 52.824a2.29 2.29 0 100-4.582 2.29 2.29 0 000 4.582zm-16.751 2.395a2.29 2.29 0 100-4.582 2.29 2.29 0 000 4.582zm17.078 7.274a1.324 1.324 0 100-2.648 1.324 1.324 0 000 2.648zm-6.069.803a.759.759 0 100-1.517.759.759 0 000 1.517zm300.267-11.335a4.835 4.835 0 100-9.67 4.835 4.835 0 000 9.67zm-10.472.312a1.294 1.294 0 100-2.587 1.294 1.294 0 000 2.587zm1.487 13.433a2.797 2.797 0 100-5.593 2.797 2.797 0 000 5.593zm-12.793 1.666a1.592 1.592 0 100-3.184 1.592 1.592 0 000 3.184zm159.505-4.498a2.395 2.395 0 10-3.935-2.73 2.395 2.395 0 003.935 2.73zM536.6 55.26a2.396 2.396 0 10-3.939-2.728 2.396 2.396 0 003.939 2.728zm-20.406-3.406a1.384 1.384 0 10-2.225-1.648 1.384 1.384 0 002.225 1.648zm5.146-3.638a.788.788 0 10-1.296-.898.788.788 0 001.296.898zm-70.366 1.259a3.466 3.466 0 10-5.75-3.871 3.466 3.466 0 005.75 3.871zm36.253 5.241c2.085-2.903 1.412-6.954-1.503-9.049-2.916-2.095-6.97-1.44-9.055 1.462-2.086 2.902-1.413 6.953 1.503 9.048 2.915 2.095 6.969 1.44 9.055-1.461zm-27.416 45.978c-1.012-.223-2.068-.461-3.214-.714-2.097 6.025-5.533 9.074-10.219 9.074h-.164c-5.801-.089-9.386-5.162-10.472-10.294-.417 1.696-.462 3.511-.09 5.489.952 5.281 4.582 10.651 10.562 10.741h.164c4.686 0 8.122-3.05 10.219-9.074 3.928.877 7.037 1.576 9.551 2.142l1.071.253.387-1.042a32.112 32.112 0 001.309-4.373l-9.09-2.202h-.014zm-85.849-47.141a.58.58 0 100-1.161.58.58 0 000 1.16zm-319.007 3.12A3.466 3.466 0 1049.2 52.81a3.466 3.466 0 005.755 3.864z" fill="#FFF7D7"/><path d="M368.176 52.244a6.991 6.991 0 100-13.983 6.991 6.991 0 000 13.983zm140.873 32.548a5.117 5.117 0 10.001-10.235 5.117 5.117 0 00-.001 10.235zm-33.183-38.234a2.56 2.56 0 10-5.118-.013 2.56 2.56 0 005.118.013z" fill="#FFF7D7"/><path d="M506.223 87.083a2.291 2.291 0 100-4.582 2.291 2.291 0 000 4.582zm23.935-19.532a2.291 2.291 0 100-4.582 2.291 2.291 0 000 4.582zm-24.262 7.929a1.324 1.324 0 100-2.649 1.324 1.324 0 000 2.649zm6.054-1.934a.759.759 0 100-1.518.759.759 0 000 1.518zM237.081 93.284a3.616 3.616 0 10-.035-7.231 3.616 3.616 0 00.035 7.23zm84.191-27.771a3.406 3.406 0 10.001-6.813 3.406 3.406 0 00-.001 6.813zm-30.019-10.755a2.797 2.797 0 100-5.594 2.797 2.797 0 000 5.594zm-47.781 42.946a1.592 1.592 0 100-3.184 1.592 1.592 0 000 3.184zM137.544 62.118a2.395 2.395 0 10-3.941-2.724 2.395 2.395 0 003.941 2.724zm3.782 14.137a2.395 2.395 0 10-3.941-2.724 2.395 2.395 0 003.941 2.724zm-52.791 5.433a1.383 1.383 0 10-2.225-1.645 1.383 1.383 0 002.225 1.645zm2.825 1.016a.788.788 0 10-1.297-.897.788.788 0 001.297.897zm57.201.056a3.466 3.466 0 10-5.755-3.864 3.466 3.466 0 005.755 3.864zm-53.897-6.1a4.857 4.857 0 00-1.115-6.778 4.857 4.857 0 00-6.781 1.095 4.857 4.857 0 001.115 6.778 4.857 4.857 0 006.781-1.095z" fill="#FFF7D7"/><path d="M247.86 67.744l-20.037-16.512 23.965-9.67-1.681 5.787h6.843l-4.463 21.734-4.627-1.339z" fill="#000A00"/><path d="M224.148 78.589c-.208 0-5.057-.253-11.409-1.95-6.248-1.665-17.093-4.863-17.197-4.893l-2.335-.684 1.948-1.443c1.815-1.34 9.179-7.825 9.253-7.885l.729-.64.789.566s6.351 4.597 11.231 4.597c.163 0 .342 0 .506-.015.773-.818 1.502-5.534-1.042-17.316-4.76 5.846-14.057 7.022-18.133 7.93-.595.133-1.057.237-1.309.311l-.967.283-5.653-11.231 1.725-.193c.313-.03.774-.06 1.354-.105a71.128 71.128 0 005.579-.565l-3.556-9.758 1.369-.283c8.985-1.845 26.523-7.408 31.953-9.223l1.339-.446 1.77 10.294-1.145.238c-.67.149-1.369.268-2.098.416-1.487.283-3.139.595-5.192 1.101.387.491.744.967 1.086 1.473 7.245-1.28 17.003-5.727 20.083-10.413l1.294-1.964 5.325 13.82-.833.535c-3.347 2.157-8.806 4.716-17.018 6.01 5.847.937 13.537 1.71 17.688 1.71.372 0 .714 0 1.026-.014l1.622-.074-4.314 17.226-1.19-.328c-8.004-2.23-13.775-4.909-18.937-8.866 2.573 10.101-.67 18.759-4.582 21.57l-.342.238h-.417v-.03zm-13.522-37.294c-2.752.967-6.054 2.261-9.773 3.823 3.436-.625 7.155-1.755 9.773-3.823z" fill="#EC7329"/><path d="M229.37 27.267l1.339 7.765c-2.395.506-5.876 1.235-9.997 2.32 1.532.745 2.172 1.489 2.96 2.426 7.914-1.8 17.688-4.552 21.035-9.655l4.105 10.904c-9.431 5.162-16.988 4.091-22.879 4.091 4.3 5.028 19.279 5.965 25.349 4.983.58-.074.937-.148 1.517-.252l-4.671 15.649c-9.282-2.589-16.527-7.9-20.647-12.645 4.641 10.34-.625 23.965-3.184 24.858-1.205.416-5.638-.461-12.139-2.023-9.074-2.187-16.274-5.073-16.274-5.073 1.89-1.398 9.342-7.958 9.342-7.958s6.605 4.834 11.946 4.834c.252 0 .505 0 .758-.03 1.86-.178 3.377-17.88-2.172-21.971-3.778 8.286-16.675 9.907-18.907 10.562l-4.418-8.777c2.782-.312 16.542.402 20.707-7.587-3.02.863-6.53 1.726-13.076 4.478l-2.781-7.616c8.672-1.785 25.72-7.14 32.102-9.253m1.889-3.213l-2.663.892c-5.415 1.8-22.894 7.349-31.819 9.179l-2.737.565.952 2.633 2.558 7.036a74.503 74.503 0 01-4.016.357c-.595.045-1.071.075-1.398.104l-3.452.387 1.562 3.11 4.418 8.776.908 1.8 1.934-.565c.208-.06.714-.179 1.234-.298 3.779-.848 12.496-2.812 17.881-7.69 1.517 8.21.922 13.105.312 14.697-3.704-.12-8.672-3.169-10.308-4.36l-1.562-1.145-1.458 1.28c-2.053 1.8-7.706 6.739-9.179 7.825l-3.912 2.885 4.656 1.384c.104.03 10.964 3.243 17.226 4.909 6.486 1.725 11.455 1.978 11.663 1.978l.833.045.684-.491c3.675-2.633 7.185-10.175 5.698-19.755 4.641 3.094 9.922 5.326 16.794 7.245l2.395.669.61-2.41 3.615-14.444.789-3.154-3.243.149c-.283 0-.61.015-.967.015-2.574 0-6.635-.313-10.741-.789 4.805-1.368 8.316-3.154 10.741-4.715l.357-3.154c-2.023-4.567-2.008-5.965-4.27-11.068l-1.19-3.05-2.335 3.2c-1.636 2.483-5.817 5.235-10.607 7.258l-.133-.758-1.339-7.765-.476-2.767h-.015z" fill="#000A00"/><path d="M178.733 26.836l1.576-.223c9.119-1.31 21.764-4.18 26.182-5.221l-6.337-14.936 19.457-3.778L220.37 18c4.448-1.562 16.215-5.727 21.153-7.929l1.815-.818 1.354 19.398-.848.401c-1.517.73-8.524 1.637-10.651 1.905l-1.413.178-.61-6.099c-8.108 2.93-29.008 8.405-37.279 10.562l-.491.134 1.979 5.89-1.354.432c-2.975.937-7.706 2.47-8.509 2.797l-1.443.61-5.37-18.625h.03z" fill="#EC7329"/><path d="M246.804 27.297l-1.383-20.484c0-.506-.313-.818-.714-.61 0 0-16.349 6.233-22.106 8.227L222.081 0 197.61 4.954l1.919 3.63 5.013 11.826c-5.34 1.234-16.319 3.659-24.456 4.82l-3.153.446.877 3.064 4.493 15.59.863 3.005 2.885-1.205c.715-.298 5.326-1.8 8.39-2.767l2.693-.848-.893-2.678-1.056-3.138c12.689-3.333 27.193-7.215 34.78-9.774l.297 2.93.283 2.827 2.826-.357c4.21-.52 9.551-1.294 11.068-2.023l2.469-1.13-.134-1.89.03.015zm-13.76 2.29l-.64-6.5c-6.723 2.841-34.095 9.922-40.759 11.678l1.993 5.965s-7.482 2.365-8.628 2.841l-4.492-15.59c11.365-1.636 27.907-5.623 27.907-5.623l-6.308-14.875 16.2-3.14.774 15.576s16.75-5.787 23.012-8.584l1.161 16.483c-1.428.684-10.22 1.77-10.22 1.77z" fill="#000A00"/><path d="M146.765 63.743l1.502-.253a122.268 122.268 0 0039.718-14.102l1.176-.67 6.471 15.397-1.458.282c-13.998 2.708-27.372 7.453-39.763 14.117l-1.175.625-6.471-15.411v.015z" fill="#EC7329"/><path d="M188.58 50.444l5.371 12.778c-14.266 2.752-27.625 7.527-40.106 14.251l-5.37-12.778c14.192-2.425 27.565-7.17 40.105-14.251zm1.176-3.451l-2.366 1.338A121.544 121.544 0 01148.059 62.3l-3.005.506 1.175 2.811 5.37 12.778 1.027 2.455 2.335-1.264c12.288-6.605 25.557-11.32 39.421-13.999l2.916-.565-1.146-2.737-5.37-12.778-1.056-2.5.03-.014zM220.801 61.2c-.699-1.34-2.335-2.678-5.087-4.21 2.097-3.333 2.782-6.368 1.785-8.435a3.54 3.54 0 00-1.592-1.607c-.714-.476-1.562-.773-2.469-.773h-.313c-1.948.133-3.332 1.844-4.581 4.09a20.445 20.445 0 00-1.294 1.979c-.09-.06-.164-.134-.253-.194-1.756-1.368-3.407-2.662-5.118-2.662h-.238a3.996 3.996 0 00-1.13-.179c-2.499.06-4.24 3.422-4.27 4.82-.044 3.972.253 4.21 5.504 7.051-2.633 3.734-3.049 5.936-1.904 8.197.967 1.919 3.675 2.662 5.118 2.707 2.93.074 4.7-.937 6.233-5.206 1.904 1.309 3.064 2.067 5.414 1.978 3.05-.119 4.523-2.529 4.612-3.927.134-1.92.03-2.946-.446-3.66l.029.03z" fill="#000A00"/><path d="M204.869 68.637h.194c1.963-.134 3.585-3.913 5.132-7.096 2.157 1.383 4.552 3.868 6.203 3.868h.104c1.949-.134 2.827-1.324 2.99-2.41.268-1.71-2.871-3.749-7.066-5.787 1.934-3.005 4.374-6.114 3.437-7.87a2.723 2.723 0 00-2.44-1.472h-.194c-1.963.134-3.585 3.912-5.132 7.096-2.157-1.384-4.552-3.868-6.203-3.868h-.104c-1.949.134-2.826 1.324-2.99 2.41-.268 1.71 2.871 3.749 7.066 5.787-1.934 3.005-4.373 6.114-3.436 7.869a2.721 2.721 0 002.439 1.473z" fill="#FFCE00"/><path d="M225.368 41.83c6.278-.877 14.326-2.915 18.625-6.128l1.606 4.552 1.919-1.726-2.886-7.81s-4.522 6.65-20.127 10.205l.863.893v.014zm-4.79-20.543c9.342-2.945 14.831-4.834 19.8-6.858l1.339 5.609.669 3.927-.773-11.782s-2.128 1.592-20.901 7.914l-.134 1.19zm8.479 27.208c2.619 1.904 13.106 3.823 19.562 4.686 0 0 .312 1.428.387 3.168.119 3.273-.58 7.855-.58 7.855l3.927-13.805s-4.582.535-10.116.208c-4.09-.238-8.419-1.086-13.194-2.127l.014.015z" fill="#FFF7D7"/><path d="M580.766 48.673c-3.318-3.6-7.245-9.416-7.245-9.416l-41.622 49.165s5.459 2.499 8.196 5.057c3.823 3.556 5.251 7.379 5.251 7.379l50.057-40.76s-10.1-6.515-14.637-11.425z" fill="#EC7329"/><path d="M573.521 39.242s3.927 5.832 7.245 9.417c4.537 4.909 14.637 11.424 14.637 11.424l-50.057 40.76s-1.428-3.823-5.251-7.378c-2.737-2.56-8.196-5.058-8.196-5.058l41.622-49.165zm.223-3.986l-2.068 2.44-41.622 49.164-2.053 2.424 2.886 1.324c1.428.655 5.549 2.752 7.557 4.627 3.317 3.08 4.626 6.426 4.626 6.456l1.19 3.124 2.589-2.098 50.057-40.76 2.573-2.097-2.796-1.8c-.104-.06-9.893-6.396-14.162-11.038-3.154-3.421-6.977-9.074-7.021-9.133l-1.786-2.648.03.015zm-28.219 83.765c.208 10.294-5.653 24.664-23.429 25.036-16.81.357-24.233-13.552-24.441-23.846-.209-10.294 11.052 13.373 22.581 13.121 11.529-.253 25.215-17.836 25.289-14.326v.015z" fill="#000A00"/><path d="M521.902 140.784a24.776 24.776 0 01-13.582-4.046c-11.513-7.512-14.756-22.983-7.244-34.497 3.645-5.578 9.223-9.401 15.739-10.77 6.515-1.369 13.165-.119 18.743 3.526 11.514 7.512 14.757 22.983 7.245 34.497-4.776 7.318-12.764 11.29-20.916 11.29h.015z" fill="#000A00"/><path d="M534.249 97.02a22.32 22.32 0 00-16.929-3.184c-5.89 1.235-10.933 4.686-14.221 9.729-6.783 10.398-3.853 24.367 6.545 31.15 10.399 6.783 24.367 3.853 31.15-6.545 6.784-10.398 3.853-24.367-6.545-31.15z" fill="#EC7329"/><path d="M536.094 121.832c-1.994 7.691-10.473 12.139-18.952 9.952-8.479-2.201-13.745-10.205-11.752-17.895.997-3.838 6.635 4.447 14.311 6.441 7.675 1.993 17.389-2.321 16.408 1.517l-.015-.015z" fill="#FFF7D7"/><path d="M536.584 120.137c-.952-1.101-3.049-.878-6.232-.521-3.139.342-7.037.774-10.458-.119-3.481-.893-6.516-3.154-8.955-4.969-2.321-1.725-3.853-2.856-5.147-2.395-.61.209-1.012.729-1.22 1.533-1.027 3.957-.298 8.107 2.053 11.692 2.335 3.555 5.995 6.129 10.294 7.245 1.532.401 3.064.595 4.596.595 2.782 0 5.489-.655 7.929-1.919 3.793-1.994 6.441-5.266 7.468-9.223.208-.774.089-1.428-.328-1.904v-.015zm-8.746 1.428l.803 8.211a15.249 15.249 0 01-3.362 1.25l-.952-9.327c1.205 0 2.38-.045 3.525-.134h-.014zm-10.488 9.401c-3.897-1.011-7.2-3.332-9.312-6.53-2.083-3.184-2.737-6.843-1.83-10.339.075-.283.149-.372.149-.372.491-.134 2.276 1.19 3.585 2.172 2.425 1.8 5.757 4.255 9.55 5.236 1.027.268 2.068.417 3.124.506l.997 9.714a16.579 16.579 0 01-6.263-.387zm17.925-9.342c-.758 2.901-2.528 5.4-5.042 7.17l-.715-7.378c.343-.03.7-.074 1.027-.104 1.681-.179 4.478-.491 4.76-.045 0 .015.03.134-.03.372v-.015z" fill="#000A00"/><path d="M555.477 150.677c-4.136 0-7.126-.759-8.554-1.116l-.625-.163-11.394-18.67.446-.565c4.477-5.653 7.616-12.51 9.565-20.93l.253-1.131 11.038 3.779 8.196-26.42 1.175.834c1.057.743 2.009 1.442 2.916 2.097 4.299 3.094 7.126 5.147 11.603 7.26l.982.46-7.215 14.013 13.284-7.943.476 1.086c2.098 4.79 3.318 7.601 9.684 13.061l1.369 1.16-22.938 8.211 3.034 16.884-.55.387c-7.334 5.132-14.995 7.721-22.745 7.721v-.015z" fill="#EC7329"/><path d="M600 117.072l-2.008-1.547c-6.174-5.295-7.379-8.018-9.357-12.555l-.06-.134-.952-2.172-2.023 1.22-9.133 5.46 5.057-9.803.982-1.92-1.949-.922c-4.388-2.067-7.185-4.09-11.439-7.155-.893-.654-1.86-1.339-2.916-2.097h-1.77l-1.413 1.085-7.453 24.025-8.925-3.065-2.187-.743-.521 2.246c-1.919 8.271-4.983 14.995-9.372 20.528l-.907 1.146.759 1.235 10.8 17.687.446.729.833.208.208.06c1.473.372 4.537 1.145 8.807 1.145 7.973 0 15.827-2.663 23.34-7.914l1.086-.759-.238-1.309-2.767-15.351 20.424-7.304 2.663-1.994-.015-.03zm-55.948 2.425l14.519 6.709-2.678 6.977-16.988-4.091a49.147 49.147 0 005.132-9.595h.015zm31.656 14.98l.967 6.902-9.03 1.399-1.606-6.01 9.654-2.291h.015zm-10.205.253l-1.592-5.935 10.532-3.243.967 6.843-9.907 2.35v-.015zm9.402-11.127l-13.046 4.061 4.552 17.018 6.396-.982c-8.196 4.567-16.601 5.817-25.08 3.749l-10.101-16.557.223-.312 19.101 4.596 3.778-9.833-16.066-7.423a66.785 66.785 0 002.142-6.887l10.874 3.734 7.974-25.661c.535.387 1.041.759 1.532 1.116 4.031 2.915 6.813 4.909 10.845 6.917l-9.759 18.952 17.851-10.666c1.696 3.823 3.228 6.724 8.182 11.246" fill="#000A00"/><path d="M534.978 89.775l38.528-45.029.759 1.131s3.332 4.924 6.054 7.884c2.812 3.035 8.286 6.888 10.845 8.613l2.573-2.097-1.19-.759c-.089-.06-8.524-5.519-12.243-9.55-2.737-2.96-6.024-7.84-6.054-7.884l-.759-1.13-40.819 47.735 1.235.566s.431.193 1.071.52zm7.81 22.686c-.833-5.846-4.061-11.335-9.402-14.816-9.833-6.412-22.998-3.645-29.409 6.173-2.737 4.18-3.779 8.97-3.347 13.582a21.007 21.007 0 013.347-9.58c6.411-9.833 19.576-12.585 29.409-6.174 4.627 3.02 7.646 7.542 8.911 12.496l.491-1.681z" fill="#FFF7D7"/></g><defs><linearGradient id="paint0_linear_1151_3407" x1="504.899" y1="201.805" x2="474.612" y2="30.079" gradientUnits="userSpaceOnUse"><stop offset=".1" stop-color="#EC7329"/><stop offset=".13" stop-color="#EC7F2D"/><stop offset=".3" stop-color="#EDB13C"/><stop offset=".55" stop-color="#00D28C"/><stop offset=".75" stop-color="#00C896"/><stop offset="1" stop-color="#FFFF79"/></linearGradient><linearGradient id="paint1_linear_1151_3407" x1="51.708" y1="173.318" x2="90.847" y2="27.297" gradientUnits="userSpaceOnUse"><stop offset=".04" stop-color="#EC7329"/><stop offset=".06" stop-color="#EC782B"/><stop offset=".25" stop-color="#EDB13C"/><stop offset=".5" stop-color="#00C8A0"/><stop offset=".8" stop-color="#00D296"/><stop offset="1" stop-color="#FFFF79"/></linearGradient><linearGradient id="paint2_linear_1151_3407" x1="451.123" y1="129.315" x2="439.788" y2="65.007" gradientUnits="userSpaceOnUse"><stop stop-color="#00C8A8"/><stop offset=".3" stop-color="#14C878"/><stop offset="1" stop-color="#8DFFB0"/></linearGradient><linearGradient id="paint3_linear_1151_3407" x1="221.352" y1="132.32" x2="221.352" y2="73.858" gradientUnits="userSpaceOnUse"><stop stop-color="#00C8A8"/><stop offset=".34" stop-color="#14C878"/><stop offset="1" stop-color="#8DFFB0"/></linearGradient><linearGradient id="paint4_linear_1151_3407" x1="277.82" y1="141.498" x2="277.82" y2="22.195" gradientUnits="userSpaceOnUse"><stop stop-color="#00C8A8"/><stop offset=".34" stop-color="#14C878"/><stop offset="1" stop-color="#8DFFB0"/></linearGradient><linearGradient id="paint5_linear_1151_3407" x1="331.596" y1="170.06" x2="344.196" y2="26.047" gradientUnits="userSpaceOnUse"><stop stop-color="#EC7329"/><stop offset=".12" stop-color="#EDB13C"/><stop offset=".4" stop-color="#00CD96"/><stop offset=".77" stop-color="#00DC8C"/><stop offset="1" stop-color="#FFFF79"/></linearGradient><linearGradient id="paint6_linear_1151_3407" x1="394.551" y1="129.3" x2="394.551" y2="67.819" gradientUnits="userSpaceOnUse"><stop stop-color="#00C8A8"/><stop offset=".3" stop-color="#14C878"/><stop offset="1" stop-color="#8DFFB0"/></linearGradient><linearGradient id="paint7_linear_1151_3407" x1="168.781" y1="157.891" x2="168.781" y2="89.195" gradientUnits="userSpaceOnUse"><stop stop-color="#00C8A8"/><stop offset=".46" stop-color="#14C878"/><stop offset="1" stop-color="#FFFF96"/></linearGradient><clipPath id="clip0_1151_3407"><path fill="#fff" d="M0 0h600v210H0z"/></clipPath></defs></svg>