<svg width="570" height="206" viewBox="0 0 570 206" fill="none" xmlns="http://www.w3.org/2000/svg">
<g clip-path="url(#clip0_1151_2730)">
<path d="M438.107 93.1998C407.212 93.1998 396.677 73.8334 396.24 73.0055C395.096 70.8289 395.933 68.136 398.11 66.9921C400.277 65.8526 402.957 66.6761 404.105 68.8348C404.484 69.5248 412.887 84.2933 438.107 84.2933C440.564 84.2933 442.558 86.2874 442.558 88.7443C442.558 91.2013 440.564 93.1954 438.107 93.1954V93.1998Z" fill="#FF7788"/>
<path d="M347.889 93.1998C345.432 93.1998 343.438 91.2058 343.438 88.7488C343.438 86.2918 345.432 84.2978 347.889 84.2978C360.053 84.2978 376.335 80.7592 384.828 63.8986C387.031 59.5233 388.749 54.7072 389.924 49.5796L398.711 11.3274C399.263 8.93276 401.648 7.43276 404.047 7.98469C406.442 8.53662 407.938 10.9224 407.39 13.317L398.604 51.5693C397.264 57.3912 395.306 62.8883 392.782 67.9001C382.246 88.8067 362.555 93.1954 347.893 93.1954L347.889 93.1998Z" fill="#FF7788"/>
<path d="M434.083 42.0574H409.949C407.492 42.0574 405.498 40.0633 405.498 37.6063C405.498 35.1493 407.492 33.1553 409.949 33.1553H434.083C436.54 33.1553 438.534 35.1493 438.534 37.6063C438.534 40.0633 436.54 42.0574 434.083 42.0574Z" fill="#FF7788"/>
<path d="M384.093 42.0574H358.812C356.355 42.0574 354.36 40.0633 354.36 37.6063C354.36 35.1493 356.355 33.1553 358.812 33.1553H384.093C386.55 33.1553 388.544 35.1493 388.544 37.6063C388.544 40.0633 386.55 42.0574 384.093 42.0574Z" fill="#FF7788"/>
<path d="M334.415 42.0574H306.258C303.801 42.0574 301.807 40.0633 301.807 37.6063C301.807 35.1493 303.801 33.1553 306.258 33.1553H334.415C336.872 33.1553 338.866 35.1493 338.866 37.6063C338.866 40.0633 336.872 42.0574 334.415 42.0574Z" fill="#FF7788"/>
<path d="M300.125 59.8615H296.105C293.648 59.8615 291.654 57.8674 291.654 55.4104C291.654 52.9534 293.648 50.9594 296.105 50.9594H300.125C302.724 50.9594 305.199 50.6033 307.469 49.9C308.479 49.584 309.485 49.219 310.415 48.6983C311.421 48.133 312.098 47.4119 312.846 46.5618C314.248 44.9816 316.816 44.8392 318.512 45.9787C320.55 47.3496 321.093 50.1181 319.718 52.1567C317.88 54.8896 314.644 56.9905 310.104 58.3971C306.979 59.3674 303.619 59.857 300.125 59.857V59.8615Z" fill="#FF7788"/>
<path d="M237.307 93.7739C236.982 93.7739 236.648 93.7383 236.319 93.6626C233.92 93.1196 232.42 90.7338 232.963 88.3391L249.628 14.7857C250.086 12.756 251.889 11.3184 253.967 11.3184H264.169C268.74 11.3184 275.586 12.627 278.163 20.0379C279.663 24.351 279.067 29.0647 276.565 32.6566C274.945 34.9845 272.706 36.4489 270.102 37.4549C269.11 37.8377 268.099 38.1225 267.076 38.4118C266.604 38.5454 266.123 38.7012 265.714 38.9771C265.375 39.2041 265.086 39.5246 264.961 39.9163C264.774 40.4949 264.975 41.1403 265.34 41.6255C265.705 42.1106 266.208 42.4667 266.711 42.8095C267.601 43.4193 268.424 44.1537 269.163 44.9371C269.902 45.7204 270.512 46.5661 271.01 47.5009C271.424 48.2842 271.754 49.1077 272.003 49.9578C273.04 53.4474 272.755 57.1863 271.206 60.489C269.755 63.5825 267.392 65.6032 263.773 66.8495C261.721 67.5572 259.5 67.9133 257.172 67.9133H255.116C252.659 67.9133 250.665 65.9193 250.665 63.4623C250.665 61.0053 252.659 59.0112 255.116 59.0112H257.172C258.512 59.0112 259.745 58.7664 260.88 58.4326C261.961 58.1166 262.923 57.351 263.35 56.2872C263.915 54.8762 263.871 53.1937 263.185 51.8139C262.42 50.2783 260.817 49.6641 259.607 48.5558C258.565 47.5988 257.608 46.4415 256.999 45.1596C256.193 43.4638 255.855 41.4964 256.019 39.4712C256.242 36.756 257.346 34.2012 259.447 32.4207C261.369 30.7872 263.697 30.1463 266.056 29.4163C267.272 29.0379 268.5 28.6641 269.261 27.5691C270.138 26.3139 270.32 24.5914 269.755 22.9623C268.763 20.1092 264.681 20.2204 264.174 20.2204H257.524L241.647 90.3065C241.18 92.3718 239.341 93.7739 237.312 93.7739H237.307Z" fill="#FF7788"/>
<path d="M205.825 85.2858H199.691C197.234 85.2858 195.24 83.2917 195.24 80.8347C195.24 78.3778 197.234 76.3837 199.691 76.3837H205.825C208.309 76.3837 211.905 74.2873 211.905 70.4905C211.905 67.6374 210.899 65.6433 208.74 64.2235C207.396 63.3377 205.745 62.8703 203.973 62.8703H146.826C144.214 62.8703 142.469 63.9297 141.182 66.311C139.998 68.492 139.771 70.8421 139.771 70.8644C139.576 73.3169 137.43 75.133 134.982 74.9371C132.53 74.7413 130.705 72.5825 130.896 70.1344C131.341 64.5439 135.24 53.9683 146.826 53.9683H203.973C207.49 53.9683 210.832 54.943 213.632 56.7813C218.261 59.8258 220.812 64.6908 220.812 70.4861C220.812 79.3347 213.067 85.2813 205.829 85.2813L205.825 85.2858Z" fill="#FF7788"/>
<path d="M206.586 50.8081H197.964C195.507 50.8081 193.513 48.814 193.513 46.357C193.513 43.9001 195.507 41.906 197.964 41.906H206.586C206.639 41.906 211.905 41.5099 211.905 36.587C211.905 33.8452 210.877 32.1983 208.576 31.2547C207.668 30.8808 206.635 30.6938 205.509 30.6938H152.061L149.43 41.6478C148.856 44.038 146.453 45.5113 144.062 44.9371C141.672 44.363 140.199 41.9594 140.773 39.5692L144.223 25.2057C144.703 23.2027 146.493 21.7917 148.549 21.7917H205.509C207.797 21.7917 209.964 22.2057 211.95 23.0158C217.58 25.3214 220.807 30.2665 220.807 36.5826C220.807 46.2814 212.323 50.8036 206.586 50.8036V50.8081Z" fill="#FF7788"/>
<path d="M196.246 19.0721C195.908 19.0721 195.565 19.032 195.223 18.9519C192.828 18.3866 191.346 15.9919 191.911 13.6017L194.208 3.8317C194.773 1.43704 197.168 -0.0451578 199.558 0.520124C201.953 1.08541 203.435 3.48006 202.869 5.87027L200.573 15.6403C200.092 17.6922 198.263 19.0721 196.242 19.0721H196.246Z" fill="#FF7788"/>
<path d="M167.515 19.0721C167.177 19.0721 166.834 19.032 166.491 18.9519C164.096 18.3866 162.614 15.9919 163.18 13.6017L165.476 3.8317C166.042 1.43704 168.436 -0.0451578 170.826 0.520124C173.221 1.08541 174.703 3.48006 174.138 5.87027L171.841 15.6403C171.361 17.6922 169.531 19.0721 167.51 19.0721H167.515Z" fill="#FF7788"/>
<path d="M225.552 18.498H210.036C207.579 18.498 205.584 16.504 205.584 14.047C205.584 11.59 207.579 9.59595 210.036 9.59595H225.552C228.009 9.59595 230.003 11.59 230.003 14.047C230.003 16.504 228.009 18.498 225.552 18.498Z" fill="#FF7788"/>
<path d="M183.027 18.498H181.304C178.847 18.498 176.853 16.504 176.853 14.047C176.853 11.59 178.847 9.59595 181.304 9.59595H183.027C185.484 9.59595 187.478 11.59 187.478 14.047C187.478 16.504 185.484 18.498 183.027 18.498Z" fill="#FF7788"/>
<path d="M154.295 18.498H138.205C135.748 18.498 133.754 16.504 133.754 14.047C133.754 11.59 135.748 9.59595 138.205 9.59595H154.295C156.752 9.59595 158.746 11.59 158.746 14.047C158.746 16.504 156.752 18.498 154.295 18.498Z" fill="#FF7788"/>
<path d="M323.501 93.2C323.377 93.2 323.248 93.1955 323.123 93.1821L320.644 92.9729C313.037 92.332 305.702 90.3157 298.834 86.9863L297.182 86.1851C287.987 90.8008 274.807 93.0397 274.237 93.1376C272.777 93.3824 271.291 92.8839 270.272 91.8112C269.252 90.7385 268.834 89.2296 269.154 87.783L285.245 15.378C285.699 13.3394 287.501 11.8928 289.589 11.8928C292.638 11.8928 295.687 11.8973 298.736 11.9017C299.933 11.9017 301.108 11.9284 302.297 12.0531C305.203 12.3557 308.092 13.0145 310.82 14.0694C315.236 15.7786 319.807 18.8765 322.095 23.1539C323.27 25.3483 322.807 28.0813 320.555 29.3854C318.427 30.6228 315.703 29.8973 314.47 27.7741C310.571 21.0664 300.365 20.8038 299.947 20.7949H293.159L279.343 82.9581C283.727 81.8854 289.451 80.2074 293.724 77.9507L295.024 77.2652C296.279 76.602 297.77 76.5798 299.043 77.1985L302.715 78.9789C308.595 81.832 314.88 83.5545 321.387 84.1065L323.866 84.3157C326.315 84.5204 328.135 86.6747 327.926 89.1228C327.73 91.4462 325.785 93.2 323.497 93.2H323.501Z" fill="#FF7788"/>
<path d="M296.844 85.6373C290.728 85.6373 285.752 80.6611 285.752 74.5454C285.752 68.4296 290.728 63.4534 296.844 63.4534C302.96 63.4534 307.936 68.4296 307.936 74.5454C307.936 80.6611 302.96 85.6373 296.844 85.6373ZM296.844 72.3599C295.638 72.3599 294.654 73.3436 294.654 74.5498C294.654 75.756 295.638 76.7397 296.844 76.7397C298.05 76.7397 299.034 75.756 299.034 74.5498C299.034 73.3436 298.05 72.3599 296.844 72.3599Z" fill="#FF7788"/>
<path d="M175.375 51.017C173.778 51.017 172.206 50.3582 171.076 49.1075C166.576 44.1223 161.577 42.4621 155.795 44.0244C150.935 45.3419 147.329 48.4487 147.294 48.4799C144.908 50.6075 141.263 50.3849 139.135 47.9992C137.007 45.6134 137.23 41.9458 139.62 39.8182C140.159 39.3375 145.095 35.0689 152.279 32.9903C160.976 30.4755 169.367 32.2959 176.315 38.109C188.604 31.3612 192.071 29.3939 192.721 28.9844C195.365 27.2262 198.935 27.9295 200.715 30.5645C202.505 33.2128 201.81 36.8093 199.162 38.5986C198.454 39.0793 196.246 40.379 178.153 50.3004C177.276 50.7811 176.319 51.0125 175.371 51.0125L175.375 51.017Z" fill="#2288DD"/>
<path d="M166.825 94.8912C164.951 94.8912 163.211 93.6983 162.596 91.8244C161.862 89.5855 163.006 87.1775 165.165 86.314H162.387C160.068 86.314 157.829 85.771 155.92 84.7473C152.439 82.8823 150.445 79.682 150.445 75.9654C150.445 72.2487 152.23 69.1864 155.475 67.2725C157.313 66.1909 159.485 65.6167 161.755 65.6167H180.218C182.488 65.6167 184.736 66.1508 186.757 67.1879C188.461 68.0648 189.988 69.271 191.274 70.6909C192.169 71.679 192.939 72.7784 193.536 73.9713C194.034 74.9683 194.279 76.0099 194.056 77.1182C193.767 78.547 192.774 79.7665 191.435 80.3363C189.254 81.2665 186.828 80.2873 185.733 78.2443C184.896 76.6909 183.623 75.3467 181.905 74.7814C181.362 74.6033 180.792 74.5143 180.218 74.5143H162.129C161.19 74.5143 159.432 74.6879 159.432 75.9743C159.432 77.225 161.266 77.412 162.178 77.412H180.516C183.49 77.412 186.053 79.3971 186.752 82.2413C187.447 85.0811 186.151 87.9075 183.53 89.274C181.019 90.5826 177.659 91.6553 173.007 93.133C171.552 93.5959 169.958 94.1033 168.218 94.6731C167.76 94.8244 167.292 94.8956 166.834 94.8956L166.825 94.8912Z" fill="#FF7788"/>
<path d="M527.693 32.9548C527.052 31.6284 525.454 31.072 524.128 31.7129L517.602 34.8687C517.896 34.1833 517.905 33.3776 517.553 32.6477C516.913 31.3213 515.315 30.7649 513.988 31.4058L502.509 36.9607C501.183 37.6017 500.626 39.1996 501.267 40.5305C501.73 41.483 502.683 42.0394 503.671 42.0394C504.062 42.0394 504.459 41.9548 504.832 41.7723L511.353 38.6165C511.059 39.302 511.05 40.1076 511.402 40.8331C511.865 41.7856 512.818 42.342 513.806 42.342C514.197 42.342 514.594 42.2575 514.967 42.075L526.447 36.5201C527.773 35.8791 528.329 34.2812 527.689 32.9548H527.693Z" fill="#FFEE55"/>
<path d="M37.0369 50.265C29.3811 50.265 23.1497 44.0424 23.1497 36.3956C23.1497 28.7487 29.3811 22.5261 37.0369 22.5261C44.6927 22.5261 50.9241 28.7487 50.9241 36.3956C50.9241 44.0424 44.6927 50.265 37.0369 50.265ZM37.0369 27.8674C32.3232 27.8674 28.4909 31.6908 28.4909 36.3956C28.4909 41.1003 32.3232 44.9237 37.0369 44.9237C41.7505 44.9237 45.5829 41.1003 45.5829 36.3956C45.5829 31.6908 41.7505 27.8674 37.0369 27.8674Z" fill="#FFBBCC"/>
<path d="M503.51 69.7427C503.648 66.3822 502.549 62.9905 500.279 59.9504C497.933 56.808 494.546 54.3466 490.598 52.8733L492.378 49.3703C493.144 49.624 493.99 49.6507 494.813 49.3792C496.856 48.7116 497.969 46.5172 497.306 44.4742C496.638 42.4311 494.444 41.3184 492.401 41.986C490.358 42.6537 489.245 44.848 489.908 46.8911C490.068 47.3762 490.313 47.808 490.62 48.173L487.304 51.9029C482.773 50.9148 478.175 51.2843 474.245 52.9756C470.76 54.4756 468.107 56.8614 466.549 59.8391C458.461 59.2828 452.831 60.3644 452.101 63.0884C451.54 65.1759 453.957 67.8599 458.386 70.6018C458.279 73.5439 460.197 76.2724 463.162 77.0691C465.289 77.6388 467.448 77.0736 469.006 75.7561C470.671 76.4104 472.429 77.0424 474.258 77.6522C474.458 80.759 476.599 83.5365 479.778 84.3866C482.956 85.2368 486.196 83.9059 487.927 81.311C489.815 81.6982 491.653 82.0276 493.424 82.2946C494.114 84.2175 495.703 85.7842 497.831 86.354C500.795 87.1463 503.826 85.7397 505.202 83.1403C510.41 82.9756 513.846 81.8584 514.402 79.7709C515.132 77.0469 510.792 73.2946 503.515 69.7338L503.51 69.7427ZM499.865 71.8569C499.767 72.2219 499.647 72.578 499.509 72.9296C494.519 73.2457 488.978 72.7071 483.316 71.1937C477.654 69.6804 472.585 67.3703 468.423 64.6062C468.481 64.2368 468.552 63.8673 468.65 63.5024C470.475 56.7012 478.941 53.0602 487.558 55.3703C496.18 57.6804 501.69 65.0647 499.865 71.8659V71.8569Z" fill="#FF7788"/>
<path fill-rule="evenodd" clip-rule="evenodd" d="M533.079 71.6299C535.905 71.6299 538.197 73.9177 538.197 76.7397C538.197 79.5616 535.905 81.8495 533.079 81.8495C530.252 81.8495 527.96 79.5616 527.96 76.7397C527.96 73.9177 530.252 71.6299 533.079 71.6299Z" fill="#2288DD"/>
<path fill-rule="evenodd" clip-rule="evenodd" d="M472.545 19.9268C475.5 19.9268 477.899 22.3214 477.899 25.2725C477.899 28.2235 475.504 30.6182 472.545 30.6182C469.585 30.6182 467.19 28.2235 467.19 25.2725C467.19 22.3214 469.585 19.9268 472.545 19.9268Z" fill="#2288DD"/>
<path fill-rule="evenodd" clip-rule="evenodd" d="M115.869 27.6582C117.507 27.6582 118.834 28.9846 118.834 30.6181C118.834 32.2517 117.507 33.5781 115.869 33.5781C114.231 33.5781 112.905 32.2517 112.905 30.6181C112.905 28.9846 114.231 27.6582 115.869 27.6582Z" fill="#2288DD"/>
<path fill-rule="evenodd" clip-rule="evenodd" d="M67.8161 44.9592C69.9793 44.9592 71.7375 46.7129 71.7375 48.8717C71.7375 51.0304 69.9838 52.7842 67.8161 52.7842C65.6485 52.7842 63.8948 51.0304 63.8948 48.8717C63.8948 46.7129 65.6485 44.9592 67.8161 44.9592Z" fill="#2288DD"/>
<path fill-rule="evenodd" clip-rule="evenodd" d="M78.9526 14.158L88.7805 8.4963C90.0135 7.78414 91.5847 8.20699 92.2968 9.43992L97.874 19.0853C98.5862 20.3183 98.1633 21.8984 96.9304 22.6105L87.1025 28.2723C85.8695 28.9844 84.2983 28.5616 83.5861 27.3286L78.009 17.6832C77.2968 16.4503 77.7197 14.8702 78.9526 14.158Z" fill="#4477CC"/>
<path d="M563.337 63.4355L569.889 38.977C570.516 36.6313 568.371 34.4859 566.025 35.1135L541.567 41.6654C539.221 42.293 538.433 45.2263 540.151 46.9444L558.058 64.8509C559.776 66.569 562.709 65.7812 563.337 63.4355ZM555.218 54.9919L549.997 49.7708C548.136 47.9103 548.987 44.7367 551.528 44.0557L558.663 42.1462C561.205 41.4652 563.528 43.7886 562.847 46.3301L560.938 53.4651C560.257 56.0067 557.083 56.8568 555.223 54.9963L555.218 54.9919Z" fill="#EE5577"/>
<path d="M83.7953 75.7204C82.8784 75.7204 81.9792 75.3153 81.3695 74.5631C76.9674 69.115 71.0386 67.3257 63.7389 69.2441C57.9169 70.7753 53.4882 74.0557 53.4436 74.0868C52.0638 75.115 50.1143 74.8346 49.0816 73.4548C48.0534 72.075 48.3338 70.1254 49.7137 69.0928C49.9318 68.9281 55.1751 65.0512 62.1543 63.2129C70.9763 60.894 78.6276 62.7768 84.4451 68.6566C96.1113 62.1358 105.16 57.7115 105.258 57.667C106.807 56.9147 108.672 57.5557 109.424 59.1046C110.177 60.6492 109.536 62.5186 107.991 63.2708C107.893 63.3198 97.8561 68.2248 85.3309 75.3109C84.8502 75.5824 84.3205 75.7159 83.7997 75.7159L83.7953 75.7204Z" fill="#9977CC"/>
<path d="M508.812 191.977C501.396 191.977 494.395 188.892 489.378 183.36C487.398 181.174 487.562 177.796 489.748 175.815C491.933 173.835 495.312 173.999 497.292 176.185C500.506 179.732 505.104 181.579 509.902 181.259C517.705 180.734 524.048 174.191 524.346 166.361C524.51 162.088 522.97 158.042 520.015 154.971C517.055 151.9 513.08 150.204 508.812 150.204C505.861 150.204 503.47 147.814 503.47 144.863C503.47 141.912 505.861 139.521 508.812 139.521C516.005 139.521 522.717 142.379 527.711 147.56C532.7 152.741 535.295 159.565 535.024 166.766C534.779 173.207 532.148 179.323 527.622 183.992C523.091 188.665 517.055 191.478 510.623 191.915C510.018 191.955 509.413 191.977 508.812 191.977Z" fill="#FF7788"/>
<path fill-rule="evenodd" clip-rule="evenodd" d="M549.703 101.59C540.908 101.59 533.506 107.554 531.316 115.66H486.183C483.232 115.66 480.841 118.05 480.841 121.001C480.841 123.952 483.232 126.342 486.183 126.342H531.521C533.942 134.078 541.166 139.695 549.703 139.695C560.226 139.695 568.754 131.167 568.754 120.645C568.754 110.122 560.226 101.594 549.703 101.594V101.59Z" fill="#FF7788"/>
<path d="M560.07 194.541C557.648 194.541 555.454 192.881 554.875 190.419L546.352 154.157C545.675 151.286 547.455 148.41 550.331 147.734C553.197 147.062 556.077 148.838 556.754 151.713L565.277 187.976C565.954 190.847 564.173 193.722 561.298 194.399C560.889 194.497 560.475 194.541 560.07 194.541Z" fill="#FF7788"/>
<path d="M468.467 194.042C467.813 194.042 467.145 193.922 466.5 193.664C463.758 192.578 462.418 189.471 463.504 186.729L479.63 146.056C480.717 143.314 483.823 141.974 486.565 143.06C489.307 144.146 490.647 147.253 489.561 149.995L473.435 190.668C472.602 192.765 470.595 194.042 468.467 194.042Z" fill="#FF7788"/>
<path d="M392.386 189.64C391.482 189.64 390.57 189.413 389.728 188.928C383.991 185.63 378.979 180.983 375.236 175.49C369.481 167.042 366.837 156.778 367.794 146.585C368.653 137.385 372.298 128.835 378.329 121.869C380.261 119.639 383.635 119.394 385.865 121.326C388.095 123.258 388.34 126.631 386.408 128.861C381.841 134.136 379.082 140.612 378.432 147.582C377.711 155.305 379.709 163.081 384.067 169.477C386.906 173.643 390.703 177.164 395.052 179.666C397.611 181.134 398.493 184.401 397.019 186.956C396.031 188.674 394.233 189.636 392.386 189.636V189.64ZM446.595 172.824C445.82 172.824 445.033 172.655 444.285 172.295C441.628 171.017 440.506 167.826 441.788 165.164C443.501 161.603 444.556 157.78 444.93 153.801C445.513 147.556 444.343 141.307 441.543 135.734C439.923 132.507 437.8 129.569 435.231 127.014C433.139 124.931 433.135 121.548 435.218 119.461C437.301 117.373 440.684 117.364 442.771 119.447C446.15 122.812 448.95 126.68 451.086 130.94C454.785 138.307 456.334 146.554 455.559 154.798C455.07 160.041 453.672 165.088 451.406 169.793C450.485 171.703 448.576 172.82 446.59 172.82L446.595 172.824Z" fill="#FF7788"/>
<path d="M321.574 193.286C314.061 193.286 306.899 190.464 301.411 185.336C295.447 179.768 292.024 171.894 292.024 163.735C292.024 160.784 294.414 158.394 297.365 158.394C300.316 158.394 302.706 160.784 302.706 163.735C302.706 169.023 304.834 173.919 308.702 177.529C312.205 180.801 316.776 182.603 321.574 182.603C325.3 182.603 328.896 181.522 331.985 179.474C337.282 175.962 340.442 170.078 340.442 163.735C340.442 160.784 342.832 158.394 345.783 158.394C348.734 158.394 351.125 160.784 351.125 163.735C351.125 173.67 346.175 182.879 337.887 188.376C333.044 191.586 327.405 193.286 321.574 193.286ZM333.329 147.916C332.448 147.916 331.558 147.698 330.734 147.24C327.952 145.691 324.783 144.872 321.574 144.872C318.605 144.872 315.766 145.54 313.139 146.857C310.5 148.179 307.291 147.111 305.973 144.476C304.651 141.836 305.72 138.627 308.355 137.31C312.481 135.24 316.932 134.194 321.574 134.194C326.599 134.194 331.562 135.48 335.929 137.91C338.506 139.344 339.432 142.597 337.998 145.175C337.024 146.928 335.203 147.921 333.325 147.921L333.329 147.916Z" fill="#FF7788"/>
<path d="M263.822 194.056C263.056 194.056 262.277 193.891 261.534 193.54C258.868 192.275 257.733 189.088 258.997 186.422L298.38 103.41C299.644 100.744 302.831 99.6093 305.497 100.873C308.163 102.137 309.298 105.324 308.034 107.991L268.651 191.002C267.739 192.93 265.82 194.056 263.822 194.056Z" fill="#FF7788"/>
<path d="M348.815 129.222H310.148C307.197 129.222 304.807 126.832 304.807 123.881C304.807 120.93 307.197 118.54 310.148 118.54H348.815C351.766 118.54 354.156 120.93 354.156 123.881C354.156 126.832 351.766 129.222 348.815 129.222Z" fill="#FF7788"/>
<path d="M278.782 129.222H273.036C270.085 129.222 267.694 126.832 267.694 123.881C267.694 120.93 270.085 118.54 273.036 118.54H278.782C281.733 118.54 284.123 120.93 284.123 123.881C284.123 126.832 281.733 129.222 278.782 129.222Z" fill="#FF7788"/>
<path d="M259.883 150.574H207.027C204.076 150.574 201.686 148.183 201.686 145.232C201.686 142.281 204.076 139.891 207.027 139.891H259.883C262.834 139.891 265.224 142.281 265.224 145.232C265.224 148.183 262.834 150.574 259.883 150.574Z" fill="#FF7788"/>
<path d="M146.964 126.996C142.772 128.194 138.846 130.01 135.267 132.342C134.964 130.223 133.398 128.403 131.185 127.895C128.31 127.232 125.444 129.026 124.78 131.901L116.012 169.935C115.349 172.811 117.142 175.677 120.018 176.341C120.423 176.434 120.823 176.478 121.224 176.478C123.654 176.478 125.853 174.805 126.423 172.335L131.248 151.401C135.499 144.516 142.117 139.495 149.902 137.269C152.737 136.459 154.38 133.504 153.57 130.664C152.76 127.829 149.804 126.186 146.964 126.996Z" fill="#FF7788"/>
<path d="M179.675 133.103C177.432 131.185 174.062 131.452 172.144 133.695C170.226 135.938 170.493 139.308 172.736 141.226C177.565 145.352 180.334 151.361 180.334 157.708C180.334 159.943 179.982 162.173 179.301 164.3C178.62 166.428 177.632 168.395 176.359 170.198C175.086 172.001 173.533 173.616 171.775 174.956C171 175.548 170.181 176.087 169.335 176.567C168.864 176.834 168.405 177.124 167.915 177.346C167.426 177.569 166.936 177.64 166.393 177.72C165.329 177.876 164.31 178.424 163.545 179.171C161.608 181.067 161.288 184.027 162.783 186.208C163.095 186.662 164.559 188.563 167.301 188.563C167.902 188.563 168.565 188.469 169.291 188.251C169.976 188.047 170.835 187.704 171.993 187.179C183.548 181.949 191.012 170.376 191.012 157.695C191.012 148.219 186.877 139.254 179.671 133.094L179.675 133.103Z" fill="#FF7788"/>
<path d="M76.798 194.341C76.4019 194.341 75.9968 194.296 75.5918 194.203C72.7164 193.539 70.9226 190.673 71.5858 187.798L90.8544 104.238C91.5176 101.363 94.3841 99.5691 97.2594 100.232C100.135 100.896 101.929 103.762 101.265 106.637L81.9968 190.197C81.4271 192.667 79.2283 194.341 76.798 194.341Z" fill="#FF7788"/>
<path d="M50.9956 136.945C50.5994 136.945 50.1944 136.9 49.7893 136.807C46.914 136.143 45.1202 133.277 45.7834 130.402L48.9036 117.578C48.6054 117.578 48.454 117.565 48.2181 117.565H23.8976C20.9466 117.565 18.5564 115.175 18.5564 112.224C18.5564 109.273 20.9466 106.882 23.8976 106.882H48.2181C50.7285 106.882 53.2344 107.639 55.2997 109.072C57.3873 110.519 59.043 112.664 59.5282 115.188C59.8264 116.737 59.7419 118.379 59.3235 119.897L56.1944 132.796C55.6246 135.267 53.4258 136.94 50.9956 136.94V136.945Z" fill="#FF7788"/>
<path d="M106.108 150.542H100.936C97.9852 150.542 95.595 148.152 95.595 145.201C95.595 142.25 97.9852 139.86 100.936 139.86H106.108C109.059 139.86 111.45 142.25 111.45 145.201C111.45 148.152 109.059 150.542 106.108 150.542Z" fill="#FF7788"/>
<path d="M22.2372 183.204C15.9835 183.204 10.0591 180.631 5.77725 175.993C1.24609 171.084 -0.765781 164.519 0.262409 157.98C1.92265 147.4 10.9583 139.722 21.7431 139.722H72.4716C75.4226 139.722 77.8129 142.112 77.8129 145.063C77.8129 148.014 75.4226 150.404 72.4716 150.404H21.7431C16.1615 150.404 11.6704 154.201 10.8158 159.64C10.2906 162.983 11.2876 166.219 13.6289 168.747C16.0636 171.382 19.5176 172.749 23.1051 172.495C30.3514 171.734 35.5102 168.186 37.6556 162.493C38.9642 158.461 39.3069 157.063 39.3114 157.041C40.077 154.192 43.0057 152.505 45.8544 153.266C48.7031 154.028 50.3945 156.956 49.6333 159.801C49.6111 159.89 49.2194 161.474 47.7817 165.903C47.7594 165.97 47.7372 166.036 47.7105 166.103C44.1452 175.753 35.5458 181.958 24.12 183.128C24.0755 183.133 24.0265 183.137 23.982 183.142C23.3989 183.186 22.8203 183.209 22.2416 183.209L22.2372 183.204Z" fill="#FF7788"/>
<path fill-rule="evenodd" clip-rule="evenodd" d="M533.559 110.518C535.78 109.388 543.708 113.367 550.429 120.035C557.128 126.68 561.142 134.456 560.025 136.655C560.025 136.655 559.5 136.998 558.921 137.318C558.343 137.639 557.8 137.892 557.8 137.892C561.645 139.49 564.792 139.651 566.43 138.008C569.942 134.483 565.175 123.978 555.783 114.547C546.392 105.115 535.927 100.33 532.415 103.855C530.795 105.484 530.973 108.609 532.518 112.415C532.518 112.415 532.687 112.045 533.07 111.351C533.457 110.656 533.564 110.518 533.564 110.518H533.559Z" fill="#2288DD"/>
<path fill-rule="evenodd" clip-rule="evenodd" d="M158.439 108.529C154.994 108.68 151.224 111.952 147.61 117.409C147.53 117.582 147.476 117.774 147.476 117.974C147.476 118.704 148.068 119.296 148.798 119.296C149.012 119.296 149.212 119.243 149.39 119.149C150.053 118.798 150.703 118.588 151.322 118.562C157.469 118.29 158.297 134.634 154.585 155.069C150.877 175.504 144.031 192.293 137.884 192.565C136.349 192.631 135.031 191.661 133.981 189.85H133.972C133.807 189.618 133.571 189.436 133.277 189.347C132.579 189.133 131.84 189.525 131.626 190.223C131.559 190.437 131.555 190.66 131.595 190.864C132.89 200.118 136.077 205.793 140.795 205.584C149.884 205.183 161.199 183.128 166.073 156.324C170.942 129.52 167.524 108.12 158.439 108.52V108.529Z" fill="#2288DD"/>
<path d="M508.812 191.977C501.396 191.977 494.395 188.892 489.378 183.36C487.398 181.174 487.562 177.796 489.748 175.815C491.933 173.835 495.312 173.999 497.292 176.185C500.506 179.732 505.104 181.579 509.902 181.259C517.705 180.734 524.048 174.191 524.346 166.361C524.51 162.088 522.97 158.042 520.015 154.971C517.055 151.9 513.08 150.204 508.812 150.204C505.861 150.204 503.47 147.814 503.47 144.863C503.47 141.912 505.861 139.521 508.812 139.521C516.005 139.521 522.717 142.379 527.711 147.56C532.7 152.741 535.295 159.565 535.024 166.766C534.779 173.207 532.148 179.323 527.622 183.992C523.091 188.665 517.055 191.478 510.623 191.915C510.018 191.955 509.413 191.977 508.812 191.977Z" fill="url(#paint0_linear_1151_2730)"/>
<path d="M549.703 101.59C540.908 101.59 533.506 107.554 531.316 115.66H486.183C483.232 115.66 480.841 118.05 480.841 121.001C480.841 123.952 483.232 126.342 486.183 126.342H531.521C533.942 134.078 541.166 139.695 549.703 139.695C560.226 139.695 568.754 131.167 568.754 120.645C568.754 110.122 560.226 101.594 549.703 101.594V101.59Z" fill="url(#paint1_linear_1151_2730)"/>
<path d="M560.07 194.541C557.648 194.541 555.454 192.881 554.875 190.419L546.352 154.157C545.675 151.286 547.455 148.41 550.331 147.734C553.197 147.062 556.077 148.838 556.754 151.713L565.277 187.976C565.954 190.847 564.173 193.722 561.298 194.399C560.889 194.497 560.475 194.541 560.07 194.541Z" fill="url(#paint2_linear_1151_2730)"/>
<path d="M468.467 194.042C467.813 194.042 467.145 193.922 466.5 193.664C463.758 192.578 462.418 189.471 463.504 186.729L479.63 146.056C480.717 143.314 483.823 141.974 486.565 143.06C489.307 144.146 490.647 147.253 489.561 149.995L473.435 190.668C472.602 192.765 470.595 194.042 468.467 194.042Z" fill="url(#paint3_linear_1151_2730)"/>
<path d="M392.386 189.64C391.482 189.64 390.57 189.413 389.728 188.928C383.991 185.63 378.979 180.983 375.236 175.49C369.481 167.042 366.837 156.778 367.794 146.585C368.653 137.385 372.298 128.835 378.329 121.869C380.261 119.639 383.635 119.394 385.865 121.326C388.095 123.258 388.34 126.631 386.408 128.861C381.841 134.136 379.082 140.612 378.432 147.582C377.711 155.305 379.709 163.081 384.067 169.477C386.906 173.643 390.703 177.164 395.052 179.666C397.611 181.134 398.493 184.401 397.019 186.956C396.031 188.674 394.233 189.636 392.386 189.636V189.64ZM446.595 172.824C445.82 172.824 445.033 172.655 444.285 172.295C441.628 171.017 440.506 167.826 441.788 165.164C443.501 161.603 444.556 157.78 444.93 153.801C445.513 147.556 444.343 141.307 441.543 135.734C439.923 132.507 437.8 129.569 435.231 127.014C433.139 124.931 433.135 121.548 435.218 119.461C437.301 117.373 440.684 117.364 442.771 119.447C446.15 122.812 448.95 126.68 451.086 130.94C454.785 138.307 456.334 146.554 455.559 154.798C455.07 160.041 453.672 165.088 451.406 169.793C450.485 171.703 448.576 172.82 446.59 172.82L446.595 172.824Z" fill="url(#paint4_linear_1151_2730)"/>
<path d="M321.574 193.286C314.061 193.286 306.899 190.464 301.411 185.336C295.447 179.768 292.024 171.894 292.024 163.735C292.024 160.784 294.414 158.394 297.365 158.394C300.316 158.394 302.706 160.784 302.706 163.735C302.706 169.023 304.834 173.919 308.702 177.529C312.205 180.801 316.776 182.603 321.574 182.603C325.3 182.603 328.896 181.522 331.985 179.474C337.282 175.962 340.442 170.078 340.442 163.735C340.442 160.784 342.832 158.394 345.783 158.394C348.734 158.394 351.125 160.784 351.125 163.735C351.125 173.67 346.175 182.879 337.887 188.376C333.044 191.586 327.405 193.286 321.574 193.286ZM333.329 147.916C332.448 147.916 331.558 147.698 330.734 147.24C327.952 145.691 324.783 144.872 321.574 144.872C318.605 144.872 315.766 145.54 313.139 146.857C310.5 148.179 307.291 147.111 305.973 144.476C304.651 141.836 305.72 138.627 308.355 137.31C312.481 135.24 316.932 134.194 321.574 134.194C326.599 134.194 331.562 135.48 335.929 137.91C338.506 139.344 339.432 142.597 337.998 145.175C337.024 146.928 335.203 147.921 333.325 147.921L333.329 147.916Z" fill="url(#paint5_linear_1151_2730)"/>
<path d="M263.822 194.056C263.056 194.056 262.277 193.891 261.534 193.54C258.868 192.275 257.733 189.088 258.997 186.422L298.38 103.41C299.644 100.744 302.831 99.6093 305.497 100.873C308.163 102.137 309.298 105.324 308.034 107.991L268.651 191.002C267.739 192.93 265.82 194.056 263.822 194.056Z" fill="url(#paint6_linear_1151_2730)"/>
<path d="M348.815 129.222H310.148C307.197 129.222 304.807 126.832 304.807 123.881C304.807 120.93 307.197 118.54 310.148 118.54H348.815C351.766 118.54 354.156 120.93 354.156 123.881C354.156 126.832 351.766 129.222 348.815 129.222Z" fill="url(#paint7_linear_1151_2730)"/>
<path d="M278.782 129.222H273.036C270.085 129.222 267.694 126.832 267.694 123.881C267.694 120.93 270.085 118.54 273.036 118.54H278.782C281.733 118.54 284.123 120.93 284.123 123.881C284.123 126.832 281.733 129.222 278.782 129.222Z" fill="url(#paint8_linear_1151_2730)"/>
<path d="M259.883 150.574H207.027C204.076 150.574 201.686 148.183 201.686 145.232C201.686 142.281 204.076 139.891 207.027 139.891H259.883C262.834 139.891 265.224 142.281 265.224 145.232C265.224 148.183 262.834 150.574 259.883 150.574Z" fill="url(#paint9_linear_1151_2730)"/>
<path d="M146.964 126.996C142.772 128.194 138.846 130.01 135.267 132.342C134.964 130.223 133.398 128.403 131.185 127.895C128.31 127.232 125.444 129.026 124.78 131.901L116.012 169.935C115.349 172.811 117.142 175.677 120.018 176.341C120.423 176.434 120.823 176.478 121.224 176.478C123.654 176.478 125.853 174.805 126.423 172.335L131.248 151.401C135.499 144.516 142.117 139.495 149.902 137.269C152.737 136.459 154.38 133.504 153.57 130.664C152.76 127.829 149.804 126.186 146.964 126.996Z" fill="url(#paint10_linear_1151_2730)"/>
<path d="M179.675 133.103C177.432 131.185 174.062 131.452 172.144 133.695C170.226 135.938 170.493 139.308 172.736 141.226C177.565 145.352 180.334 151.361 180.334 157.708C180.334 159.943 179.982 162.173 179.301 164.3C178.62 166.428 177.632 168.395 176.359 170.198C175.086 172.001 173.533 173.616 171.775 174.956C171 175.548 170.181 176.087 169.335 176.567C168.864 176.834 168.405 177.124 167.915 177.346C167.426 177.569 166.936 177.64 166.393 177.72C165.329 177.876 164.31 178.424 163.545 179.171C161.608 181.067 161.288 184.027 162.783 186.208C163.095 186.662 164.559 188.563 167.301 188.563C167.902 188.563 168.565 188.469 169.291 188.251C169.976 188.047 170.835 187.704 171.993 187.179C183.548 181.949 191.012 170.376 191.012 157.695C191.012 148.219 186.877 139.254 179.671 133.094L179.675 133.103Z" fill="url(#paint11_linear_1151_2730)"/>
<path d="M76.798 194.341C76.4019 194.341 75.9968 194.296 75.5918 194.203C72.7164 193.539 70.9226 190.673 71.5858 187.798L90.8544 104.238C91.5176 101.363 94.3841 99.5691 97.2594 100.232C100.135 100.896 101.929 103.762 101.265 106.637L81.9968 190.197C81.4271 192.667 79.2283 194.341 76.798 194.341Z" fill="url(#paint12_linear_1151_2730)"/>
<path d="M50.9956 136.945C50.5994 136.945 50.1944 136.9 49.7893 136.807C46.914 136.143 45.1202 133.277 45.7834 130.402L48.9036 117.578C48.6054 117.578 48.454 117.565 48.2181 117.565H23.8976C20.9466 117.565 18.5564 115.175 18.5564 112.224C18.5564 109.273 20.9466 106.882 23.8976 106.882H48.2181C50.7285 106.882 53.2344 107.639 55.2997 109.072C57.3873 110.519 59.043 112.664 59.5282 115.188C59.8264 116.737 59.7419 118.379 59.3235 119.897L56.1944 132.796C55.6246 135.267 53.4258 136.94 50.9956 136.94V136.945Z" fill="url(#paint13_linear_1151_2730)"/>
<path d="M106.108 150.542H100.936C97.9852 150.542 95.595 148.152 95.595 145.201C95.595 142.25 97.9852 139.86 100.936 139.86H106.108C109.059 139.86 111.45 142.25 111.45 145.201C111.45 148.152 109.059 150.542 106.108 150.542Z" fill="url(#paint14_linear_1151_2730)"/>
<path d="M22.2372 183.204C15.9835 183.204 10.0591 180.631 5.77725 175.993C1.24609 171.084 -0.765781 164.519 0.262409 157.98C1.92265 147.4 10.9583 139.722 21.7431 139.722H72.4716C75.4226 139.722 77.8129 142.112 77.8129 145.063C77.8129 148.014 75.4226 150.404 72.4716 150.404H21.7431C16.1615 150.404 11.6704 154.201 10.8158 159.64C10.2906 162.983 11.2876 166.219 13.6289 168.747C16.0636 171.382 19.5176 172.749 23.1051 172.495C30.3514 171.734 35.5102 168.186 37.6556 162.493C38.9642 158.461 39.3069 157.063 39.3114 157.041C40.077 154.192 43.0057 152.505 45.8544 153.266C48.7031 154.028 50.3945 156.956 49.6333 159.801C49.6111 159.89 49.2194 161.474 47.7817 165.903C47.7594 165.97 47.7372 166.036 47.7105 166.103C44.1452 175.753 35.5458 181.958 24.12 183.128C24.0755 183.133 24.0265 183.137 23.982 183.142C23.3989 183.186 22.8203 183.209 22.2416 183.209L22.2372 183.204Z" fill="url(#paint15_linear_1151_2730)"/>
<path d="M533.559 110.518C535.78 109.388 543.708 113.367 550.429 120.035C557.128 126.68 561.142 134.456 560.025 136.655C560.025 136.655 559.5 136.998 558.921 137.318C558.343 137.639 557.8 137.892 557.8 137.892C561.645 139.49 564.792 139.651 566.43 138.008C569.942 134.483 565.175 123.978 555.783 114.547C546.392 105.115 535.927 100.33 532.415 103.855C530.795 105.484 530.973 108.609 532.518 112.415C532.518 112.415 532.687 112.045 533.07 111.351C533.457 110.656 533.564 110.518 533.564 110.518H533.559Z" fill="url(#paint16_linear_1151_2730)"/>
<path d="M158.439 108.529C154.994 108.68 151.224 111.952 147.61 117.409C147.53 117.582 147.476 117.774 147.476 117.974C147.476 118.704 148.068 119.296 148.798 119.296C149.012 119.296 149.212 119.243 149.39 119.149C150.053 118.798 150.703 118.588 151.322 118.562C157.469 118.29 158.297 134.634 154.585 155.069C150.877 175.504 144.031 192.293 137.884 192.565C136.349 192.631 135.031 191.661 133.981 189.85H133.972C133.807 189.618 133.571 189.436 133.277 189.347C132.579 189.133 131.84 189.525 131.626 190.223C131.559 190.437 131.555 190.66 131.595 190.864C132.89 200.118 136.077 205.793 140.795 205.584C149.884 205.183 161.199 183.128 166.073 156.324C170.942 129.52 167.524 108.12 158.439 108.52V108.529Z" fill="url(#paint17_linear_1151_2730)"/>
</g>
<defs>
<linearGradient id="paint0_linear_1151_2730" x1="284.377" y1="205.597" x2="284.377" y2="100.094" gradientUnits="userSpaceOnUse">
<stop offset="0.22" stop-color="#2288DD"/>
<stop offset="0.3" stop-color="#2288DD" stop-opacity="0.67"/>
<stop offset="0.38" stop-color="#2288DD" stop-opacity="0.38"/>
<stop offset="0.44" stop-color="#2288DD" stop-opacity="0.17"/>
<stop offset="0.49" stop-color="#2288DD" stop-opacity="0.05"/>
<stop offset="0.51" stop-color="#2288DD" stop-opacity="0"/>
</linearGradient>
<linearGradient id="paint1_linear_1151_2730" x1="284.377" y1="205.597" x2="284.377" y2="100.094" gradientUnits="userSpaceOnUse">
<stop offset="0.22" stop-color="#2288DD"/>
<stop offset="0.3" stop-color="#2288DD" stop-opacity="0.67"/>
<stop offset="0.38" stop-color="#2288DD" stop-opacity="0.38"/>
<stop offset="0.44" stop-color="#2288DD" stop-opacity="0.17"/>
<stop offset="0.49" stop-color="#2288DD" stop-opacity="0.05"/>
<stop offset="0.51" stop-color="#2288DD" stop-opacity="0"/>
</linearGradient>
<linearGradient id="paint2_linear_1151_2730" x1="284.377" y1="205.597" x2="284.377" y2="100.094" gradientUnits="userSpaceOnUse">
<stop offset="0.22" stop-color="#2288DD"/>
<stop offset="0.3" stop-color="#2288DD" stop-opacity="0.67"/>
<stop offset="0.38" stop-color="#2288DD" stop-opacity="0.38"/>
<stop offset="0.44" stop-color="#2288DD" stop-opacity="0.17"/>
<stop offset="0.49" stop-color="#2288DD" stop-opacity="0.05"/>
<stop offset="0.51" stop-color="#2288DD" stop-opacity="0"/>
</linearGradient>
<linearGradient id="paint3_linear_1151_2730" x1="284.377" y1="205.597" x2="284.377" y2="100.094" gradientUnits="userSpaceOnUse">
<stop offset="0.22" stop-color="#2288DD"/>
<stop offset="0.3" stop-color="#2288DD" stop-opacity="0.67"/>
<stop offset="0.38" stop-color="#2288DD" stop-opacity="0.38"/>
<stop offset="0.44" stop-color="#2288DD" stop-opacity="0.17"/>
<stop offset="0.49" stop-color="#2288DD" stop-opacity="0.05"/>
<stop offset="0.51" stop-color="#2288DD" stop-opacity="0"/>
</linearGradient>
<linearGradient id="paint4_linear_1151_2730" x1="284.377" y1="205.597" x2="284.377" y2="100.094" gradientUnits="userSpaceOnUse">
<stop offset="0.22" stop-color="#2288DD"/>
<stop offset="0.3" stop-color="#2288DD" stop-opacity="0.67"/>
<stop offset="0.38" stop-color="#2288DD" stop-opacity="0.38"/>
<stop offset="0.44" stop-color="#2288DD" stop-opacity="0.17"/>
<stop offset="0.49" stop-color="#2288DD" stop-opacity="0.05"/>
<stop offset="0.51" stop-color="#2288DD" stop-opacity="0"/>
</linearGradient>
<linearGradient id="paint5_linear_1151_2730" x1="284.377" y1="205.597" x2="284.377" y2="100.094" gradientUnits="userSpaceOnUse">
<stop offset="0.22" stop-color="#2288DD"/>
<stop offset="0.3" stop-color="#2288DD" stop-opacity="0.67"/>
<stop offset="0.38" stop-color="#2288DD" stop-opacity="0.38"/>
<stop offset="0.44" stop-color="#2288DD" stop-opacity="0.17"/>
<stop offset="0.49" stop-color="#2288DD" stop-opacity="0.05"/>
<stop offset="0.51" stop-color="#2288DD" stop-opacity="0"/>
</linearGradient>
<linearGradient id="paint6_linear_1151_2730" x1="284.377" y1="205.597" x2="284.377" y2="100.094" gradientUnits="userSpaceOnUse">
<stop offset="0.22" stop-color="#2288DD"/>
<stop offset="0.3" stop-color="#2288DD" stop-opacity="0.67"/>
<stop offset="0.38" stop-color="#2288DD" stop-opacity="0.38"/>
<stop offset="0.44" stop-color="#2288DD" stop-opacity="0.17"/>
<stop offset="0.49" stop-color="#2288DD" stop-opacity="0.05"/>
<stop offset="0.51" stop-color="#2288DD" stop-opacity="0"/>
</linearGradient>
<linearGradient id="paint7_linear_1151_2730" x1="284.377" y1="205.597" x2="284.377" y2="100.094" gradientUnits="userSpaceOnUse">
<stop offset="0.22" stop-color="#2288DD"/>
<stop offset="0.3" stop-color="#2288DD" stop-opacity="0.67"/>
<stop offset="0.38" stop-color="#2288DD" stop-opacity="0.38"/>
<stop offset="0.44" stop-color="#2288DD" stop-opacity="0.17"/>
<stop offset="0.49" stop-color="#2288DD" stop-opacity="0.05"/>
<stop offset="0.51" stop-color="#2288DD" stop-opacity="0"/>
</linearGradient>
<linearGradient id="paint8_linear_1151_2730" x1="284.377" y1="205.597" x2="284.377" y2="100.094" gradientUnits="userSpaceOnUse">
<stop offset="0.22" stop-color="#2288DD"/>
<stop offset="0.3" stop-color="#2288DD" stop-opacity="0.67"/>
<stop offset="0.38" stop-color="#2288DD" stop-opacity="0.38"/>
<stop offset="0.44" stop-color="#2288DD" stop-opacity="0.17"/>
<stop offset="0.49" stop-color="#2288DD" stop-opacity="0.05"/>
<stop offset="0.51" stop-color="#2288DD" stop-opacity="0"/>
</linearGradient>
<linearGradient id="paint9_linear_1151_2730" x1="284.377" y1="205.597" x2="284.377" y2="100.094" gradientUnits="userSpaceOnUse">
<stop offset="0.22" stop-color="#2288DD"/>
<stop offset="0.3" stop-color="#2288DD" stop-opacity="0.67"/>
<stop offset="0.38" stop-color="#2288DD" stop-opacity="0.38"/>
<stop offset="0.44" stop-color="#2288DD" stop-opacity="0.17"/>
<stop offset="0.49" stop-color="#2288DD" stop-opacity="0.05"/>
<stop offset="0.51" stop-color="#2288DD" stop-opacity="0"/>
</linearGradient>
<linearGradient id="paint10_linear_1151_2730" x1="284.377" y1="205.597" x2="284.377" y2="100.094" gradientUnits="userSpaceOnUse">
<stop offset="0.22" stop-color="#2288DD"/>
<stop offset="0.3" stop-color="#2288DD" stop-opacity="0.67"/>
<stop offset="0.38" stop-color="#2288DD" stop-opacity="0.38"/>
<stop offset="0.44" stop-color="#2288DD" stop-opacity="0.17"/>
<stop offset="0.49" stop-color="#2288DD" stop-opacity="0.05"/>
<stop offset="0.51" stop-color="#2288DD" stop-opacity="0"/>
</linearGradient>
<linearGradient id="paint11_linear_1151_2730" x1="284.377" y1="205.597" x2="284.377" y2="100.094" gradientUnits="userSpaceOnUse">
<stop offset="0.22" stop-color="#2288DD"/>
<stop offset="0.3" stop-color="#2288DD" stop-opacity="0.67"/>
<stop offset="0.38" stop-color="#2288DD" stop-opacity="0.38"/>
<stop offset="0.44" stop-color="#2288DD" stop-opacity="0.17"/>
<stop offset="0.49" stop-color="#2288DD" stop-opacity="0.05"/>
<stop offset="0.51" stop-color="#2288DD" stop-opacity="0"/>
</linearGradient>
<linearGradient id="paint12_linear_1151_2730" x1="284.377" y1="205.597" x2="284.377" y2="100.094" gradientUnits="userSpaceOnUse">
<stop offset="0.22" stop-color="#2288DD"/>
<stop offset="0.3" stop-color="#2288DD" stop-opacity="0.67"/>
<stop offset="0.38" stop-color="#2288DD" stop-opacity="0.38"/>
<stop offset="0.44" stop-color="#2288DD" stop-opacity="0.17"/>
<stop offset="0.49" stop-color="#2288DD" stop-opacity="0.05"/>
<stop offset="0.51" stop-color="#2288DD" stop-opacity="0"/>
</linearGradient>
<linearGradient id="paint13_linear_1151_2730" x1="284.377" y1="205.597" x2="284.377" y2="100.094" gradientUnits="userSpaceOnUse">
<stop offset="0.22" stop-color="#2288DD"/>
<stop offset="0.3" stop-color="#2288DD" stop-opacity="0.67"/>
<stop offset="0.38" stop-color="#2288DD" stop-opacity="0.38"/>
<stop offset="0.44" stop-color="#2288DD" stop-opacity="0.17"/>
<stop offset="0.49" stop-color="#2288DD" stop-opacity="0.05"/>
<stop offset="0.51" stop-color="#2288DD" stop-opacity="0"/>
</linearGradient>
<linearGradient id="paint14_linear_1151_2730" x1="284.377" y1="205.597" x2="284.377" y2="100.094" gradientUnits="userSpaceOnUse">
<stop offset="0.22" stop-color="#2288DD"/>
<stop offset="0.3" stop-color="#2288DD" stop-opacity="0.67"/>
<stop offset="0.38" stop-color="#2288DD" stop-opacity="0.38"/>
<stop offset="0.44" stop-color="#2288DD" stop-opacity="0.17"/>
<stop offset="0.49" stop-color="#2288DD" stop-opacity="0.05"/>
<stop offset="0.51" stop-color="#2288DD" stop-opacity="0"/>
</linearGradient>
<linearGradient id="paint15_linear_1151_2730" x1="284.377" y1="205.597" x2="284.377" y2="100.094" gradientUnits="userSpaceOnUse">
<stop offset="0.22" stop-color="#2288DD"/>
<stop offset="0.3" stop-color="#2288DD" stop-opacity="0.67"/>
<stop offset="0.38" stop-color="#2288DD" stop-opacity="0.38"/>
<stop offset="0.44" stop-color="#2288DD" stop-opacity="0.17"/>
<stop offset="0.49" stop-color="#2288DD" stop-opacity="0.05"/>
<stop offset="0.51" stop-color="#2288DD" stop-opacity="0"/>
</linearGradient>
<linearGradient id="paint16_linear_1151_2730" x1="284.377" y1="205.597" x2="284.377" y2="100.094" gradientUnits="userSpaceOnUse">
<stop offset="0.22" stop-color="#2288DD"/>
<stop offset="0.3" stop-color="#2288DD" stop-opacity="0.67"/>
<stop offset="0.38" stop-color="#2288DD" stop-opacity="0.38"/>
<stop offset="0.44" stop-color="#2288DD" stop-opacity="0.17"/>
<stop offset="0.49" stop-color="#2288DD" stop-opacity="0.05"/>
<stop offset="0.51" stop-color="#2288DD" stop-opacity="0"/>
</linearGradient>
<linearGradient id="paint17_linear_1151_2730" x1="284.377" y1="205.597" x2="284.377" y2="100.094" gradientUnits="userSpaceOnUse">
<stop offset="0.22" stop-color="#2288DD"/>
<stop offset="0.3" stop-color="#2288DD" stop-opacity="0.67"/>
<stop offset="0.38" stop-color="#2288DD" stop-opacity="0.38"/>
<stop offset="0.44" stop-color="#2288DD" stop-opacity="0.17"/>
<stop offset="0.49" stop-color="#2288DD" stop-opacity="0.05"/>
<stop offset="0.51" stop-color="#2288DD" stop-opacity="0"/>
</linearGradient>
<clipPath id="clip0_1151_2730">
<rect width="570" height="206" fill="white"/>
</clipPath>
</defs>
</svg>
